<svg xmlns="http://www.w3.org/2000/svg" xmlns:xlink="http://www.w3.org/1999/xlink" width="500" zoomAndPan="magnify" viewBox="0 0 375 374.999991" height="500" preserveAspectRatio="xMidYMid meet" version="1.0"><defs><g/><clipPath id="6359189b18"><path d="M 56.28125 102.496094 L 318.78125 102.496094 L 318.78125 178.996094 L 56.28125 178.996094 Z M 56.28125 102.496094 " clip-rule="nonzero"/></clipPath><clipPath id="88d3a1bdc4"><path d="M 121 156 L 144 156 L 144 178.996094 L 121 178.996094 Z M 121 156 " clip-rule="nonzero"/></clipPath></defs><g clip-path="url(#6359189b18)"><path fill="#b87333" d="M 138.785156 109.070312 L 182.578125 152.863281 L 307.964844 152.863281 L 318.902344 165.847656 L 307.964844 178.832031 L 295.558594 178.832031 L 292.089844 171.894531 L 283.992188 171.894531 L 280.523438 178.832031 L 272.742188 178.832031 L 269.273438 171.894531 L 261.28125 171.894531 L 257.8125 178.832031 L 250.082031 178.832031 L 246.613281 171.894531 L 238.515625 171.894531 L 235.046875 178.832031 L 182.632812 178.832031 L 132.476562 128.679688 L 82.058594 178.832031 L 56.089844 178.832031 L 83.164062 151.757812 L 83.164062 125.523438 L 101.300781 125.523438 L 101.300781 133.621094 C 111.660156 123.265625 122.066406 112.855469 132.425781 102.496094 Z M 187.519531 157.804688 L 189.257812 159.539062 L 307.125 159.539062 L 307.125 157.804688 Z M 187.519531 157.804688 " fill-opacity="1" fill-rule="nonzero"/></g><g clip-path="url(#88d3a1bdc4)"><path fill="#b87333" d="M 121.226562 156.332031 L 130.742188 156.332031 L 130.742188 166.109375 L 121.226562 166.109375 Z M 133.898438 156.332031 L 143.414062 156.332031 L 143.414062 166.109375 L 133.898438 166.109375 Z M 143.414062 169.003906 L 143.414062 178.78125 L 133.898438 178.78125 L 133.898438 169.003906 Z M 130.742188 178.832031 L 121.226562 178.832031 L 121.226562 169.054688 L 130.742188 169.054688 Z M 130.742188 178.832031 " fill-opacity="1" fill-rule="nonzero"/></g><g fill="#ffffff" fill-opacity="1"><g transform="translate(18.291515, 236.606708)"><g><path d="M 16.890625 0.40625 C 14.035156 0.40625 11.453125 -0.21875 9.140625 -1.46875 C 6.835938 -2.726562 5.035156 -4.457031 3.734375 -6.65625 C 2.429688 -8.863281 1.78125 -11.359375 1.78125 -14.140625 C 1.78125 -16.910156 2.4375 -19.398438 3.75 -21.609375 C 5.070312 -23.816406 6.882812 -25.546875 9.1875 -26.796875 C 11.488281 -28.046875 14.066406 -28.671875 16.921875 -28.671875 C 19.234375 -28.671875 21.34375 -28.265625 23.25 -27.453125 C 25.164062 -26.648438 26.785156 -25.484375 28.109375 -23.953125 L 24.71875 -20.765625 C 22.675781 -22.972656 20.160156 -24.078125 17.171875 -24.078125 C 15.234375 -24.078125 13.492188 -23.648438 11.953125 -22.796875 C 10.421875 -21.953125 9.222656 -20.773438 8.359375 -19.265625 C 7.492188 -17.753906 7.0625 -16.046875 7.0625 -14.140625 C 7.0625 -12.222656 7.492188 -10.507812 8.359375 -9 C 9.222656 -7.5 10.421875 -6.320312 11.953125 -5.46875 C 13.492188 -4.625 15.234375 -4.203125 17.171875 -4.203125 C 20.160156 -4.203125 22.675781 -5.316406 24.71875 -7.546875 L 28.109375 -4.328125 C 26.785156 -2.785156 25.160156 -1.609375 23.234375 -0.796875 C 21.316406 0.00390625 19.203125 0.40625 16.890625 0.40625 Z M 16.890625 0.40625 "/></g></g></g><g fill="#ffffff" fill-opacity="1"><g transform="translate(47.655111, 236.606708)"><g><path d="M 3.796875 -28.28125 L 16.15625 -28.28125 C 19.175781 -28.28125 21.851562 -27.691406 24.1875 -26.515625 C 26.53125 -25.347656 28.347656 -23.691406 29.640625 -21.546875 C 30.929688 -19.410156 31.578125 -16.941406 31.578125 -14.140625 C 31.578125 -11.335938 30.929688 -8.863281 29.640625 -6.71875 C 28.347656 -4.582031 26.53125 -2.925781 24.1875 -1.75 C 21.851562 -0.582031 19.175781 0 16.15625 0 L 3.796875 0 Z M 15.90625 -4.4375 C 17.988281 -4.4375 19.816406 -4.832031 21.390625 -5.625 C 22.960938 -6.425781 24.171875 -7.5625 25.015625 -9.03125 C 25.867188 -10.5 26.296875 -12.203125 26.296875 -14.140625 C 26.296875 -16.078125 25.867188 -17.78125 25.015625 -19.25 C 24.171875 -20.71875 22.960938 -21.847656 21.390625 -22.640625 C 19.816406 -23.429688 17.988281 -23.828125 15.90625 -23.828125 L 9.046875 -23.828125 L 9.046875 -4.4375 Z M 15.90625 -4.4375 "/></g></g></g><g fill="#ffffff" fill-opacity="1"><g transform="translate(81.017342, 236.606708)"><g/></g></g><g fill="#ffffff" fill-opacity="1"><g transform="translate(92.165015, 236.606708)"><g><path d="M 3.796875 -28.28125 L 9.046875 -28.28125 L 9.046875 0 L 3.796875 0 Z M 3.796875 -28.28125 "/></g></g></g><g fill="#ffffff" fill-opacity="1"><g transform="translate(105.049462, 236.606708)"><g><path d="M 29.765625 0 L 29.734375 -18.734375 L 20.4375 -3.234375 L 18.09375 -3.234375 L 8.8125 -18.5 L 8.8125 0 L 3.796875 0 L 3.796875 -28.28125 L 8.125 -28.28125 L 19.34375 -9.53125 L 30.375 -28.28125 L 34.703125 -28.28125 L 34.734375 0 Z M 29.765625 0 "/></g></g></g><g fill="#ffffff" fill-opacity="1"><g transform="translate(143.622011, 236.606708)"><g><path d="M 29.765625 0 L 29.734375 -18.734375 L 20.4375 -3.234375 L 18.09375 -3.234375 L 8.8125 -18.5 L 8.8125 0 L 3.796875 0 L 3.796875 -28.28125 L 8.125 -28.28125 L 19.34375 -9.53125 L 30.375 -28.28125 L 34.703125 -28.28125 L 34.734375 0 Z M 29.765625 0 "/></g></g></g><g fill="#ffffff" fill-opacity="1"><g transform="translate(182.19456, 236.606708)"><g><path d="M 17 0.40625 C 14.125 0.40625 11.523438 -0.21875 9.203125 -1.46875 C 6.890625 -2.726562 5.070312 -4.46875 3.75 -6.6875 C 2.4375 -8.90625 1.78125 -11.390625 1.78125 -14.140625 C 1.78125 -16.878906 2.4375 -19.359375 3.75 -21.578125 C 5.070312 -23.804688 6.890625 -25.546875 9.203125 -26.796875 C 11.523438 -28.046875 14.125 -28.671875 17 -28.671875 C 19.882812 -28.671875 22.484375 -28.046875 24.796875 -26.796875 C 27.117188 -25.546875 28.9375 -23.816406 30.25 -21.609375 C 31.570312 -19.398438 32.234375 -16.910156 32.234375 -14.140625 C 32.234375 -11.359375 31.570312 -8.863281 30.25 -6.65625 C 28.9375 -4.457031 27.117188 -2.726562 24.796875 -1.46875 C 22.484375 -0.21875 19.882812 0.40625 17 0.40625 Z M 17 -4.203125 C 18.882812 -4.203125 20.582031 -4.625 22.09375 -5.46875 C 23.601562 -6.320312 24.785156 -7.507812 25.640625 -9.03125 C 26.503906 -10.550781 26.9375 -12.253906 26.9375 -14.140625 C 26.9375 -16.023438 26.503906 -17.726562 25.640625 -19.25 C 24.785156 -20.769531 23.601562 -21.953125 22.09375 -22.796875 C 20.582031 -23.648438 18.882812 -24.078125 17 -24.078125 C 15.113281 -24.078125 13.414062 -23.648438 11.90625 -22.796875 C 10.40625 -21.953125 9.222656 -20.769531 8.359375 -19.25 C 7.492188 -17.726562 7.0625 -16.023438 7.0625 -14.140625 C 7.0625 -12.253906 7.492188 -10.550781 8.359375 -9.03125 C 9.222656 -7.507812 10.40625 -6.320312 11.90625 -5.46875 C 13.414062 -4.625 15.113281 -4.203125 17 -4.203125 Z M 17 -4.203125 "/></g></g></g><g fill="#ffffff" fill-opacity="1"><g transform="translate(216.203019, 236.606708)"><g><path d="M 23.828125 -14.703125 C 25.390625 -14.191406 26.628906 -13.335938 27.546875 -12.140625 C 28.460938 -10.941406 28.921875 -9.453125 28.921875 -7.671875 C 28.921875 -5.222656 27.976562 -3.332031 26.09375 -2 C 24.207031 -0.664062 21.460938 0 17.859375 0 L 3.796875 0 L 3.796875 -28.28125 L 17.046875 -28.28125 C 20.378906 -28.28125 22.945312 -27.625 24.75 -26.3125 C 26.5625 -25.007812 27.46875 -23.210938 27.46875 -20.921875 C 27.46875 -19.523438 27.144531 -18.285156 26.5 -17.203125 C 25.851562 -16.128906 24.960938 -15.296875 23.828125 -14.703125 Z M 9.046875 -24.15625 L 9.046875 -16.359375 L 16.484375 -16.359375 C 18.304688 -16.359375 19.707031 -16.6875 20.6875 -17.34375 C 21.675781 -18.007812 22.171875 -18.972656 22.171875 -20.234375 C 22.171875 -21.523438 21.675781 -22.5 20.6875 -23.15625 C 19.707031 -23.820312 18.304688 -24.15625 16.484375 -24.15625 Z M 17.53125 -4.125 C 21.59375 -4.125 23.625 -5.484375 23.625 -8.203125 C 23.625 -10.921875 21.59375 -12.28125 17.53125 -12.28125 L 9.046875 -12.28125 L 9.046875 -4.125 Z M 17.53125 -4.125 "/></g></g></g><g fill="#ffffff" fill-opacity="1"><g transform="translate(246.939879, 236.606708)"><g><path d="M 3.796875 -28.28125 L 9.046875 -28.28125 L 9.046875 0 L 3.796875 0 Z M 3.796875 -28.28125 "/></g></g></g><g fill="#ffffff" fill-opacity="1"><g transform="translate(259.824325, 236.606708)"><g><path d="M 3.796875 -28.28125 L 9.046875 -28.28125 L 9.046875 -4.4375 L 23.828125 -4.4375 L 23.828125 0 L 3.796875 0 Z M 3.796875 -28.28125 "/></g></g></g><g fill="#ffffff" fill-opacity="1"><g transform="translate(284.017988, 236.606708)"><g><path d="M 3.796875 -28.28125 L 9.046875 -28.28125 L 9.046875 0 L 3.796875 0 Z M 3.796875 -28.28125 "/></g></g></g><g fill="#ffffff" fill-opacity="1"><g transform="translate(296.902434, 236.606708)"><g><path d="M 25 -4.40625 L 25 0 L 3.796875 0 L 3.796875 -28.28125 L 24.4375 -28.28125 L 24.4375 -23.875 L 9.046875 -23.875 L 9.046875 -16.515625 L 22.703125 -16.515625 L 22.703125 -12.203125 L 9.046875 -12.203125 L 9.046875 -4.40625 Z M 25 -4.40625 "/></g></g></g><g fill="#ffffff" fill-opacity="1"><g transform="translate(323.963801, 236.606708)"><g><path d="M 28.921875 -28.28125 L 28.921875 0 L 24.59375 0 L 9 -19.140625 L 9 0 L 3.796875 0 L 3.796875 -28.28125 L 8.125 -28.28125 L 23.703125 -9.125 L 23.703125 -28.28125 Z M 28.921875 -28.28125 "/></g></g></g><g fill="#ffffff" fill-opacity="1"><g transform="translate(134.107913, 265.354386)"><g><path d="M 0.953125 -14.359375 L 4.046875 -14.359375 C 5.648438 -14.359375 6.867188 -14.046875 7.703125 -13.421875 C 8.546875 -12.804688 8.96875 -11.9375 8.96875 -10.8125 C 8.96875 -10.195312 8.820312 -9.648438 8.53125 -9.171875 C 8.238281 -8.691406 7.851562 -8.289062 7.375 -7.96875 C 6.90625 -7.644531 6.378906 -7.394531 5.796875 -7.21875 C 5.210938 -7.039062 4.628906 -6.953125 4.046875 -6.953125 L 3.21875 -6.953125 L 3.21875 -1.40625 C 3.21875 -1.289062 3.234375 -1.164062 3.265625 -1.03125 C 3.296875 -0.894531 3.34375 -0.769531 3.40625 -0.65625 C 3.46875 -0.539062 3.535156 -0.4375 3.609375 -0.34375 C 3.691406 -0.257812 3.796875 -0.21875 3.921875 -0.21875 L 4.03125 -0.21875 L 4.03125 0 L 0.953125 0 L 0.953125 -0.21875 L 1.0625 -0.21875 C 1.164062 -0.21875 1.257812 -0.257812 1.34375 -0.34375 C 1.4375 -0.4375 1.507812 -0.539062 1.5625 -0.65625 C 1.625 -0.769531 1.664062 -0.894531 1.6875 -1.03125 C 1.71875 -1.164062 1.734375 -1.289062 1.734375 -1.40625 L 1.734375 -13 C 1.734375 -13.207031 1.675781 -13.441406 1.5625 -13.703125 C 1.445312 -13.960938 1.28125 -14.109375 1.0625 -14.140625 L 0.953125 -14.140625 Z M 3.21875 -13.59375 L 3.21875 -7.71875 L 3.875 -7.71875 C 4.445312 -7.71875 4.960938 -7.796875 5.421875 -7.953125 C 5.878906 -8.117188 6.257812 -8.332031 6.5625 -8.59375 C 6.875 -8.851562 7.109375 -9.148438 7.265625 -9.484375 C 7.421875 -9.816406 7.5 -10.15625 7.5 -10.5 C 7.5 -10.925781 7.429688 -11.320312 7.296875 -11.6875 C 7.160156 -12.0625 6.9375 -12.390625 6.625 -12.671875 C 6.3125 -12.953125 5.898438 -13.175781 5.390625 -13.34375 C 4.878906 -13.507812 4.257812 -13.59375 3.53125 -13.59375 Z M 3.21875 -13.59375 "/></g></g></g><g fill="#ffffff" fill-opacity="1"><g transform="translate(143.935708, 265.354386)"><g><path d="M 8.3125 -14.578125 C 9.4375 -14.578125 10.445312 -14.375 11.34375 -13.96875 C 12.25 -13.570312 13.015625 -13.035156 13.640625 -12.359375 C 14.273438 -11.691406 14.757812 -10.910156 15.09375 -10.015625 C 15.4375 -9.117188 15.609375 -8.1875 15.609375 -7.21875 C 15.609375 -6.132812 15.410156 -5.132812 15.015625 -4.21875 C 14.617188 -3.300781 14.070312 -2.515625 13.375 -1.859375 C 12.675781 -1.210938 11.863281 -0.703125 10.9375 -0.328125 C 10.019531 0.0351562 9.039062 0.21875 8 0.21875 C 6.882812 0.21875 5.878906 0.015625 4.984375 -0.390625 C 4.097656 -0.796875 3.347656 -1.332031 2.734375 -2 C 2.117188 -2.664062 1.644531 -3.429688 1.3125 -4.296875 C 0.976562 -5.171875 0.8125 -6.082031 0.8125 -7.03125 C 0.8125 -7.957031 0.976562 -8.875 1.3125 -9.78125 C 1.644531 -10.6875 2.128906 -11.492188 2.765625 -12.203125 C 3.410156 -12.910156 4.195312 -13.484375 5.125 -13.921875 C 6.0625 -14.359375 7.125 -14.578125 8.3125 -14.578125 Z M 8.28125 -0.546875 C 9.257812 -0.585938 10.113281 -0.804688 10.84375 -1.203125 C 11.570312 -1.609375 12.179688 -2.117188 12.671875 -2.734375 C 13.171875 -3.347656 13.539062 -4.023438 13.78125 -4.765625 C 14.019531 -5.503906 14.140625 -6.234375 14.140625 -6.953125 C 14.140625 -7.753906 13.992188 -8.5625 13.703125 -9.375 C 13.410156 -10.1875 12.992188 -10.921875 12.453125 -11.578125 C 11.921875 -12.242188 11.28125 -12.78125 10.53125 -13.1875 C 9.789062 -13.601562 8.957031 -13.8125 8.03125 -13.8125 C 7.125 -13.8125 6.316406 -13.609375 5.609375 -13.203125 C 4.898438 -12.804688 4.296875 -12.296875 3.796875 -11.671875 C 3.296875 -11.054688 2.914062 -10.363281 2.65625 -9.59375 C 2.394531 -8.820312 2.265625 -8.066406 2.265625 -7.328125 C 2.265625 -6.535156 2.414062 -5.734375 2.71875 -4.921875 C 3.019531 -4.117188 3.4375 -3.390625 3.96875 -2.734375 C 4.507812 -2.085938 5.144531 -1.5625 5.875 -1.15625 C 6.613281 -0.75 7.414062 -0.546875 8.28125 -0.546875 Z M 8.28125 -0.546875 "/></g></g></g><g fill="#ffffff" fill-opacity="1"><g transform="translate(160.482044, 265.354386)"><g><path d="M 3.9375 -0.21875 L 4.046875 -0.21875 L 4.046875 0 L 0.984375 0 L 0.984375 -0.21875 L 1.09375 -0.21875 C 1.1875 -0.21875 1.273438 -0.257812 1.359375 -0.34375 C 1.453125 -0.4375 1.53125 -0.539062 1.59375 -0.65625 C 1.664062 -0.769531 1.710938 -0.894531 1.734375 -1.03125 C 1.765625 -1.164062 1.78125 -1.289062 1.78125 -1.40625 L 1.78125 -13 C 1.78125 -13.101562 1.765625 -13.21875 1.734375 -13.34375 C 1.710938 -13.476562 1.664062 -13.601562 1.59375 -13.71875 C 1.53125 -13.832031 1.453125 -13.929688 1.359375 -14.015625 C 1.273438 -14.097656 1.1875 -14.140625 1.09375 -14.140625 L 0.984375 -14.140625 L 0.984375 -14.359375 L 4.765625 -14.359375 C 6.210938 -14.359375 7.332031 -14.070312 8.125 -13.5 C 8.914062 -12.9375 9.3125 -12.101562 9.3125 -11 C 9.3125 -10.445312 9.21875 -9.960938 9.03125 -9.546875 C 8.851562 -9.140625 8.613281 -8.785156 8.3125 -8.484375 C 8.007812 -8.191406 7.648438 -7.953125 7.234375 -7.765625 C 6.816406 -7.585938 6.378906 -7.457031 5.921875 -7.375 L 7.484375 -4.984375 C 7.859375 -4.398438 8.238281 -3.828125 8.625 -3.265625 C 9.019531 -2.710938 9.40625 -2.140625 9.78125 -1.546875 C 9.882812 -1.398438 10 -1.242188 10.125 -1.078125 C 10.25 -0.921875 10.378906 -0.773438 10.515625 -0.640625 C 10.648438 -0.515625 10.789062 -0.410156 10.9375 -0.328125 C 11.09375 -0.253906 11.253906 -0.21875 11.421875 -0.21875 L 11.421875 0 L 10.484375 0 C 9.898438 0 9.421875 -0.140625 9.046875 -0.421875 C 8.679688 -0.703125 8.378906 -1.03125 8.140625 -1.40625 C 7.484375 -2.363281 6.832031 -3.335938 6.1875 -4.328125 C 5.539062 -5.316406 4.898438 -6.289062 4.265625 -7.25 C 4.109375 -7.257812 3.9375 -7.273438 3.75 -7.296875 C 3.570312 -7.316406 3.398438 -7.34375 3.234375 -7.375 L 3.234375 -1.40625 C 3.234375 -1.289062 3.25 -1.164062 3.28125 -1.03125 C 3.3125 -0.894531 3.359375 -0.769531 3.421875 -0.65625 C 3.492188 -0.539062 3.566406 -0.4375 3.640625 -0.34375 C 3.722656 -0.257812 3.820312 -0.21875 3.9375 -0.21875 Z M 3.234375 -13.609375 L 3.234375 -8.09375 L 3.34375 -8.09375 C 3.46875 -8.070312 3.65625 -8.054688 3.90625 -8.046875 C 4.15625 -8.046875 4.46875 -8.046875 4.84375 -8.046875 C 5.15625 -8.046875 5.476562 -8.09375 5.8125 -8.1875 C 6.15625 -8.28125 6.472656 -8.4375 6.765625 -8.65625 C 7.066406 -8.882812 7.316406 -9.179688 7.515625 -9.546875 C 7.710938 -9.910156 7.8125 -10.367188 7.8125 -10.921875 C 7.8125 -11.472656 7.703125 -11.921875 7.484375 -12.265625 C 7.273438 -12.609375 6.984375 -12.878906 6.609375 -13.078125 C 6.242188 -13.285156 5.800781 -13.425781 5.28125 -13.5 C 4.757812 -13.570312 4.1875 -13.609375 3.5625 -13.609375 Z M 3.234375 -13.609375 "/></g></g></g><g fill="#ffffff" fill-opacity="1"><g transform="translate(172.2232, 265.354386)"><g><path d="M 6.484375 -0.21875 L 6.59375 -0.21875 L 6.59375 0 L 3.5 0 L 3.5 -0.21875 L 3.609375 -0.21875 C 3.722656 -0.21875 3.820312 -0.257812 3.90625 -0.34375 C 4 -0.4375 4.078125 -0.539062 4.140625 -0.65625 C 4.203125 -0.769531 4.25 -0.894531 4.28125 -1.03125 C 4.3125 -1.164062 4.328125 -1.289062 4.328125 -1.40625 L 4.328125 -13.546875 L 1.8125 -13.546875 C 1.570312 -13.546875 1.363281 -13.492188 1.1875 -13.390625 C 1.019531 -13.296875 0.878906 -13.171875 0.765625 -13.015625 C 0.648438 -12.859375 0.5625 -12.691406 0.5 -12.515625 C 0.4375 -12.335938 0.40625 -12.160156 0.40625 -11.984375 L 0.203125 -11.984375 L 0.203125 -14.359375 L 9.96875 -14.359375 L 9.96875 -11.984375 L 9.75 -11.984375 C 9.75 -12.160156 9.71875 -12.335938 9.65625 -12.515625 C 9.59375 -12.691406 9.503906 -12.859375 9.390625 -13.015625 C 9.273438 -13.171875 9.128906 -13.296875 8.953125 -13.390625 C 8.785156 -13.492188 8.585938 -13.546875 8.359375 -13.546875 L 5.78125 -13.546875 L 5.78125 -1.40625 C 5.78125 -1.289062 5.796875 -1.164062 5.828125 -1.03125 C 5.859375 -0.894531 5.90625 -0.769531 5.96875 -0.65625 C 6.03125 -0.539062 6.101562 -0.4375 6.1875 -0.34375 C 6.269531 -0.257812 6.367188 -0.21875 6.484375 -0.21875 Z M 6.484375 -0.21875 "/></g></g></g><g fill="#ffffff" fill-opacity="1"><g transform="translate(182.398872, 265.354386)"><g><path d="M 4 -0.21875 L 4.109375 -0.21875 L 4.109375 0 L 1 0 L 1 -0.21875 L 1.109375 -0.21875 C 1.222656 -0.21875 1.320312 -0.253906 1.40625 -0.328125 C 1.5 -0.410156 1.578125 -0.507812 1.640625 -0.625 C 1.703125 -0.75 1.75 -0.875 1.78125 -1 C 1.8125 -1.132812 1.828125 -1.257812 1.828125 -1.375 L 1.828125 -13 C 1.828125 -13.101562 1.8125 -13.21875 1.78125 -13.34375 C 1.75 -13.476562 1.703125 -13.601562 1.640625 -13.71875 C 1.585938 -13.832031 1.515625 -13.929688 1.421875 -14.015625 C 1.328125 -14.097656 1.222656 -14.140625 1.109375 -14.140625 L 1 -14.140625 L 1 -14.359375 L 9.359375 -14.359375 L 9.359375 -12.328125 L 9.140625 -12.328125 C 9.140625 -12.660156 9.023438 -12.953125 8.796875 -13.203125 C 8.566406 -13.460938 8.21875 -13.59375 7.75 -13.59375 L 3.28125 -13.59375 L 3.28125 -8.09375 L 6.890625 -8.09375 C 7.222656 -8.09375 7.5 -8.191406 7.71875 -8.390625 C 7.945312 -8.597656 8.0625 -8.835938 8.0625 -9.109375 L 8.28125 -9.109375 L 8.28125 -6.390625 L 8.0625 -6.390625 C 8.0625 -6.648438 7.953125 -6.875 7.734375 -7.0625 C 7.523438 -7.25 7.242188 -7.34375 6.890625 -7.34375 L 3.28125 -7.34375 L 3.28125 -1.375 C 3.28125 -1.257812 3.296875 -1.132812 3.328125 -1 C 3.359375 -0.875 3.40625 -0.75 3.46875 -0.625 C 3.53125 -0.507812 3.601562 -0.410156 3.6875 -0.328125 C 3.78125 -0.253906 3.882812 -0.21875 4 -0.21875 Z M 4 -0.21875 "/></g></g></g><g fill="#ffffff" fill-opacity="1"><g transform="translate(192.400606, 265.354386)"><g><path d="M 8.3125 -14.578125 C 9.4375 -14.578125 10.445312 -14.375 11.34375 -13.96875 C 12.25 -13.570312 13.015625 -13.035156 13.640625 -12.359375 C 14.273438 -11.691406 14.757812 -10.910156 15.09375 -10.015625 C 15.4375 -9.117188 15.609375 -8.1875 15.609375 -7.21875 C 15.609375 -6.132812 15.410156 -5.132812 15.015625 -4.21875 C 14.617188 -3.300781 14.070312 -2.515625 13.375 -1.859375 C 12.675781 -1.210938 11.863281 -0.703125 10.9375 -0.328125 C 10.019531 0.0351562 9.039062 0.21875 8 0.21875 C 6.882812 0.21875 5.878906 0.015625 4.984375 -0.390625 C 4.097656 -0.796875 3.347656 -1.332031 2.734375 -2 C 2.117188 -2.664062 1.644531 -3.429688 1.3125 -4.296875 C 0.976562 -5.171875 0.8125 -6.082031 0.8125 -7.03125 C 0.8125 -7.957031 0.976562 -8.875 1.3125 -9.78125 C 1.644531 -10.6875 2.128906 -11.492188 2.765625 -12.203125 C 3.410156 -12.910156 4.195312 -13.484375 5.125 -13.921875 C 6.0625 -14.359375 7.125 -14.578125 8.3125 -14.578125 Z M 8.28125 -0.546875 C 9.257812 -0.585938 10.113281 -0.804688 10.84375 -1.203125 C 11.570312 -1.609375 12.179688 -2.117188 12.671875 -2.734375 C 13.171875 -3.347656 13.539062 -4.023438 13.78125 -4.765625 C 14.019531 -5.503906 14.140625 -6.234375 14.140625 -6.953125 C 14.140625 -7.753906 13.992188 -8.5625 13.703125 -9.375 C 13.410156 -10.1875 12.992188 -10.921875 12.453125 -11.578125 C 11.921875 -12.242188 11.28125 -12.78125 10.53125 -13.1875 C 9.789062 -13.601562 8.957031 -13.8125 8.03125 -13.8125 C 7.125 -13.8125 6.316406 -13.609375 5.609375 -13.203125 C 4.898438 -12.804688 4.296875 -12.296875 3.796875 -11.671875 C 3.296875 -11.054688 2.914062 -10.363281 2.65625 -9.59375 C 2.394531 -8.820312 2.265625 -8.066406 2.265625 -7.328125 C 2.265625 -6.535156 2.414062 -5.734375 2.71875 -4.921875 C 3.019531 -4.117188 3.4375 -3.390625 3.96875 -2.734375 C 4.507812 -2.085938 5.144531 -1.5625 5.875 -1.15625 C 6.613281 -0.75 7.414062 -0.546875 8.28125 -0.546875 Z M 8.28125 -0.546875 "/></g></g></g><g fill="#ffffff" fill-opacity="1"><g transform="translate(208.946941, 265.354386)"><g><path d="M 0.984375 -0.21875 L 1.09375 -0.21875 C 1.207031 -0.21875 1.304688 -0.253906 1.390625 -0.328125 C 1.472656 -0.410156 1.546875 -0.507812 1.609375 -0.625 C 1.679688 -0.75 1.734375 -0.875 1.765625 -1 C 1.804688 -1.132812 1.828125 -1.257812 1.828125 -1.375 L 1.828125 -13 C 1.828125 -13.101562 1.804688 -13.21875 1.765625 -13.34375 C 1.734375 -13.476562 1.679688 -13.601562 1.609375 -13.71875 C 1.546875 -13.832031 1.472656 -13.929688 1.390625 -14.015625 C 1.304688 -14.097656 1.207031 -14.140625 1.09375 -14.140625 L 0.984375 -14.140625 L 0.984375 -14.359375 L 4.109375 -14.359375 L 4.109375 -14.140625 L 4 -14.140625 C 3.882812 -14.140625 3.78125 -14.097656 3.6875 -14.015625 C 3.601562 -13.929688 3.53125 -13.832031 3.46875 -13.71875 C 3.414062 -13.601562 3.367188 -13.476562 3.328125 -13.34375 C 3.296875 -13.21875 3.28125 -13.101562 3.28125 -13 L 3.28125 -0.8125 L 8.046875 -0.8125 C 8.316406 -0.8125 8.550781 -0.875 8.75 -1 C 8.957031 -1.132812 9.128906 -1.296875 9.265625 -1.484375 C 9.410156 -1.679688 9.515625 -1.890625 9.578125 -2.109375 C 9.640625 -2.335938 9.671875 -2.546875 9.671875 -2.734375 L 9.890625 -2.734375 L 9.890625 0 L 0.984375 0 Z M 0.984375 -0.21875 "/></g></g></g><g fill="#ffffff" fill-opacity="1"><g transform="translate(219.057384, 265.354386)"><g><path d="M 1.0625 -14.359375 L 4.171875 -14.359375 L 4.171875 -14.140625 L 4.0625 -14.140625 C 3.96875 -14.140625 3.875 -14.097656 3.78125 -14.015625 C 3.695312 -13.929688 3.625 -13.835938 3.5625 -13.734375 C 3.507812 -13.628906 3.460938 -13.503906 3.421875 -13.359375 C 3.390625 -13.222656 3.375 -13.101562 3.375 -13 L 3.375 -1.40625 C 3.375 -1.289062 3.382812 -1.164062 3.40625 -1.03125 C 3.4375 -0.894531 3.484375 -0.769531 3.546875 -0.65625 C 3.617188 -0.539062 3.691406 -0.4375 3.765625 -0.34375 C 3.847656 -0.257812 3.945312 -0.21875 4.0625 -0.21875 L 4.171875 -0.21875 L 4.171875 0 L 1.0625 0 L 1.0625 -0.21875 L 1.171875 -0.21875 C 1.285156 -0.21875 1.382812 -0.253906 1.46875 -0.328125 C 1.5625 -0.410156 1.640625 -0.515625 1.703125 -0.640625 C 1.773438 -0.765625 1.820312 -0.894531 1.84375 -1.03125 C 1.875 -1.164062 1.890625 -1.289062 1.890625 -1.40625 L 1.890625 -13 C 1.890625 -13.101562 1.875 -13.21875 1.84375 -13.34375 C 1.820312 -13.476562 1.773438 -13.601562 1.703125 -13.71875 C 1.640625 -13.832031 1.5625 -13.929688 1.46875 -14.015625 C 1.382812 -14.097656 1.285156 -14.140625 1.171875 -14.140625 L 1.0625 -14.140625 Z M 1.0625 -14.359375 "/></g></g></g><g fill="#ffffff" fill-opacity="1"><g transform="translate(224.340899, 265.354386)"><g><path d="M 8.3125 -14.578125 C 9.4375 -14.578125 10.445312 -14.375 11.34375 -13.96875 C 12.25 -13.570312 13.015625 -13.035156 13.640625 -12.359375 C 14.273438 -11.691406 14.757812 -10.910156 15.09375 -10.015625 C 15.4375 -9.117188 15.609375 -8.1875 15.609375 -7.21875 C 15.609375 -6.132812 15.410156 -5.132812 15.015625 -4.21875 C 14.617188 -3.300781 14.070312 -2.515625 13.375 -1.859375 C 12.675781 -1.210938 11.863281 -0.703125 10.9375 -0.328125 C 10.019531 0.0351562 9.039062 0.21875 8 0.21875 C 6.882812 0.21875 5.878906 0.015625 4.984375 -0.390625 C 4.097656 -0.796875 3.347656 -1.332031 2.734375 -2 C 2.117188 -2.664062 1.644531 -3.429688 1.3125 -4.296875 C 0.976562 -5.171875 0.8125 -6.082031 0.8125 -7.03125 C 0.8125 -7.957031 0.976562 -8.875 1.3125 -9.78125 C 1.644531 -10.6875 2.128906 -11.492188 2.765625 -12.203125 C 3.410156 -12.910156 4.195312 -13.484375 5.125 -13.921875 C 6.0625 -14.359375 7.125 -14.578125 8.3125 -14.578125 Z M 8.28125 -0.546875 C 9.257812 -0.585938 10.113281 -0.804688 10.84375 -1.203125 C 11.570312 -1.609375 12.179688 -2.117188 12.671875 -2.734375 C 13.171875 -3.347656 13.539062 -4.023438 13.78125 -4.765625 C 14.019531 -5.503906 14.140625 -6.234375 14.140625 -6.953125 C 14.140625 -7.753906 13.992188 -8.5625 13.703125 -9.375 C 13.410156 -10.1875 12.992188 -10.921875 12.453125 -11.578125 C 11.921875 -12.242188 11.28125 -12.78125 10.53125 -13.1875 C 9.789062 -13.601562 8.957031 -13.8125 8.03125 -13.8125 C 7.125 -13.8125 6.316406 -13.609375 5.609375 -13.203125 C 4.898438 -12.804688 4.296875 -12.296875 3.796875 -11.671875 C 3.296875 -11.054688 2.914062 -10.363281 2.65625 -9.59375 C 2.394531 -8.820312 2.265625 -8.066406 2.265625 -7.328125 C 2.265625 -6.535156 2.414062 -5.734375 2.71875 -4.921875 C 3.019531 -4.117188 3.4375 -3.390625 3.96875 -2.734375 C 4.507812 -2.085938 5.144531 -1.5625 5.875 -1.15625 C 6.613281 -0.75 7.414062 -0.546875 8.28125 -0.546875 Z M 8.28125 -0.546875 "/></g></g></g></svg>