<?xml version="1.0" encoding="utf-8"?>
<!-- Generator: Adobe Illustrator 23.0.3, SVG Export Plug-In . SVG Version: 6.00 Build 0)  -->
<svg version="1.1" xmlns="http://www.w3.org/2000/svg" xmlns:xlink="http://www.w3.org/1999/xlink" x="0px" y="0px"
	 viewBox="0 0 1342 741.1" style="enable-background:new 0 0 1342 741.1;" xml:space="preserve">
<style type="text/css">
	.st0{fill:#1C4A6D;}
	.st1{fill:#CF9A3A;}
	.st2{fill:url(#SVGID_1_);}
	.st3{fill:url(#SVGID_2_);}
	.st4{fill:url(#SVGID_3_);}
	.st5{fill:url(#SVGID_4_);}
	.st6{fill:url(#SVGID_5_);}
	.st7{fill:url(#SVGID_6_);}
	.st8{fill:url(#SVGID_7_);}
	.st9{fill:url(#SVGID_8_);}
	.st10{fill:url(#SVGID_9_);}
	.st11{fill:url(#SVGID_10_);}
	.st12{fill:url(#SVGID_11_);}
	.st13{fill:url(#SVGID_12_);}
	.st14{fill:url(#SVGID_13_);}
	.st15{fill:url(#SVGID_14_);}
	.st16{fill:url(#SVGID_15_);}
	.st17{fill:url(#SVGID_16_);}
	.st18{fill:url(#SVGID_17_);}
	.st19{fill:#D1A53A;}
	.st20{fill:url(#SVGID_18_);}
	.st21{fill:#FFFFFF;}
</style>
<g id="Layer_1">
</g>
<g id="Layer_2">
	<g>
		<rect class="st0" width="1342" height="741.1"/>
		<g>
			<g>
				<path class="st1" d="M369.2,419.3V416c3.6-0.2,5.6-0.5,6.1-0.9s0.8-1.4,0.9-3.1c0.2-3.4,0.3-9.9,0.3-19.2
					c0-3.6-0.1-8.8-0.2-15.6c-0.1-4.7-0.2-7.2-0.3-7.7c-0.2-0.5-0.4-0.8-0.8-1c-0.6-0.3-2.6-0.5-5.9-0.7v-3.3
					c5.4,0.2,9.5,0.3,12.3,0.3c4.9,0,9.3-0.1,13.3-0.3v3.3c-3.6,0.2-5.6,0.5-6,0.8c-0.5,0.4-0.8,1.2-0.9,2.4
					c-0.2,2.5-0.3,7.6-0.3,15.2c0,10.2,0,17.3,0.1,21.3c0.1,4,0.3,6.4,0.7,7.1c0.2,0.3,0.5,0.6,1,0.8c0.5,0.2,2.3,0.4,5.4,0.6v3.3
					l-4.6-0.1c-2.9-0.1-5.5-0.2-7.8-0.2L369.2,419.3z"/>
				<path class="st1" d="M399.9,419.3v-3.2c2.7-0.1,4.2-0.3,4.6-0.5s0.6-0.7,0.7-1.4c0.2-1.3,0.3-4.3,0.3-9.1
					c0-10.1-0.1-15.5-0.4-16.3c-0.2-0.7-1.1-1.1-2.7-1.1l-2.5-0.1v-3c3.2-0.3,5.9-0.8,8.2-1.3s4.3-1.1,6.1-1.9
					c0.4-0.1,0.6-0.2,0.8-0.2c0.4,0,0.5,0.3,0.5,1c0,0.5,0,1.2-0.1,2c0,0.4-0.1,1-0.1,2v1.4l6.4-4.8c1.4-1,3.4-1.5,6.2-1.5
					c2.8,0,5,0.5,6.6,1.6c1.6,1.1,2.9,2.8,3.7,5.2l6.6-5.3c1.3-1,3.1-1.5,5.4-1.5c4.1,0,7.1,1,9,3c1.9,2,2.9,5.3,2.9,9.8l-0.1,3.3
					c-0.1,3.6-0.2,6.8-0.2,9.6c0,3.7,0.1,6.2,0.4,7.3c0.2,0.6,0.4,1,0.8,1.3c0.4,0.2,1.8,0.5,4.4,0.6v3.2c-3.2-0.2-6.1-0.2-8.5-0.2
					c-2.3,0-4.8,0.1-7.3,0.2l-0.5-0.7c0.7-5.6,1-11.1,1-16.4c0-6.3-0.5-10.3-1.5-11.9c-1-1.6-2.7-2.4-5.2-2.4c-1.6,0-3,0.4-4.3,1.2
					c-1.2,0.8-2,1.7-2.4,2.8c-0.3,0.7-0.4,3-0.4,6.9c0,6.9,0.1,11.7,0.3,14.3c0.1,1.2,0.3,1.9,0.7,2.3c0.4,0.3,2.1,0.6,5,0.8v3.2
					c-3.4-0.2-6.8-0.2-10-0.2c-4.1,0-7.8,0.1-11,0.2v-3.2c2.6,0,4.1-0.4,4.5-1.1c0.4-0.7,0.7-4,0.7-9.8c0-6.6-0.1-10.7-0.4-12.4
					c-0.3-1.6-0.9-2.8-1.9-3.7c-1-0.8-2.4-1.3-4.2-1.3c-1.3,0-2.5,0.3-3.6,0.9c-1.1,0.6-2,1.5-2.7,2.5c-0.4,0.6-0.6,1.5-0.6,2.8
					l0,1.5c0.1,0.7,0.1,2.8,0.1,6.2l0,4.6c0,4.4,0.1,7.1,0.2,7.9c0.1,0.5,0.3,0.9,0.6,1.1c0.4,0.2,1.8,0.5,4.3,0.7v3.2
					c-3.1-0.2-6.5-0.2-10.3-0.2C409.2,419,405.7,419.1,399.9,419.3z"/>
				<path class="st1" d="M471.1,419.3v-3.2c2.7-0.1,4.2-0.3,4.6-0.5s0.6-0.7,0.7-1.4c0.2-1.3,0.3-4.3,0.3-9.1
					c0-10.1-0.1-15.5-0.4-16.3c-0.2-0.7-1.1-1.1-2.7-1.1l-2.5-0.1v-3c3.2-0.3,5.9-0.8,8.2-1.3s4.3-1.1,6.1-1.9
					c0.4-0.1,0.6-0.2,0.8-0.2c0.4,0,0.5,0.3,0.5,1c0,0.5,0,1.2-0.1,2c0,0.4-0.1,1-0.1,2v1.4l6.4-4.8c1.4-1,3.4-1.5,6.2-1.5
					c2.8,0,5,0.5,6.6,1.6c1.6,1.1,2.9,2.8,3.7,5.2l6.6-5.3c1.3-1,3.1-1.5,5.4-1.5c4.1,0,7.1,1,9,3c1.9,2,2.9,5.3,2.9,9.8l-0.1,3.3
					c-0.1,3.6-0.2,6.8-0.2,9.6c0,3.7,0.1,6.2,0.4,7.3c0.2,0.6,0.4,1,0.8,1.3c0.4,0.2,1.8,0.5,4.4,0.6v3.2c-3.2-0.2-6.1-0.2-8.5-0.2
					c-2.3,0-4.8,0.1-7.3,0.2l-0.5-0.7c0.7-5.6,1-11.1,1-16.4c0-6.3-0.5-10.3-1.5-11.9c-1-1.6-2.7-2.4-5.2-2.4c-1.6,0-3,0.4-4.3,1.2
					c-1.2,0.8-2,1.7-2.4,2.8c-0.3,0.7-0.4,3-0.4,6.9c0,6.9,0.1,11.7,0.3,14.3c0.1,1.2,0.3,1.9,0.7,2.3c0.4,0.3,2.1,0.6,5,0.8v3.2
					c-3.4-0.2-6.8-0.2-10-0.2c-4.1,0-7.8,0.1-11,0.2v-3.2c2.6,0,4.1-0.4,4.5-1.1c0.4-0.7,0.7-4,0.7-9.8c0-6.6-0.1-10.7-0.4-12.4
					c-0.3-1.6-0.9-2.8-1.9-3.7c-1-0.8-2.4-1.3-4.2-1.3c-1.3,0-2.5,0.3-3.6,0.9c-1.1,0.6-2,1.5-2.7,2.5c-0.4,0.6-0.6,1.5-0.6,2.8
					l0,1.5c0.1,0.7,0.1,2.8,0.1,6.2l0,4.6c0,4.4,0.1,7.1,0.2,7.9c0.1,0.5,0.3,0.9,0.6,1.1c0.4,0.2,1.8,0.5,4.3,0.7v3.2
					c-3.1-0.2-6.5-0.2-10.3-0.2C480.4,419,476.9,419.1,471.1,419.3z"/>
				<path class="st1" d="M543.1,400.7c0-6.2,1.4-10.8,4.3-13.9c3.5-3.7,8.5-5.5,15-5.5c6.5,0,11.3,1.5,14.3,4.4
					c3,2.9,4.5,7.6,4.5,14c0,6.5-1.7,11.6-5.2,15.1c-3.5,3.5-8.3,5.3-14.4,5.3c-6,0-10.6-1.7-13.8-5
					C544.7,411.8,543.1,407,543.1,400.7z M554,398c0,7,0.9,11.9,2.7,14.9c1.4,2.3,3.5,3.4,6.2,3.4c2.4,0,4.3-1,5.6-2.9
					c1.3-1.9,2-5.4,2-10.5c0-7-0.8-11.9-2.4-14.5c-1.3-2.1-3.4-3.2-6.2-3.2c-2.4,0-4.3,1-5.7,2.9C554.7,390,554,393.3,554,398z"/>
				<path class="st1" d="M607.5,419.3V416c3.1-0.2,4.9-0.5,5.3-0.7c0.3-0.2,0.5-0.4,0.7-0.8c0.3-0.7,0.4-3.3,0.6-8.1
					c0.1-4.7,0.2-9.3,0.2-13.8c0-8.3-0.1-14.3-0.3-17.8c-0.2-3.6-0.4-5.6-0.8-6c-0.4-0.4-1.5-0.7-3.4-0.8l-2.3-0.2v-3.3l4.4,0.2
					c2.7,0.1,4.9,0.1,6.5,0.1c2.2,0,5.8-0.1,10.7-0.2c2.7-0.1,4.6-0.1,5.9-0.1c4.7,0,8.1,0.4,10.3,1.3c2.2,0.9,3.9,2.2,5.1,4
					c1.2,1.8,1.7,4,1.7,6.7c0,4.8-1.7,8.9-5.1,12.1c-3.4,3.3-7.8,4.9-13.1,4.9c-0.7,0-1.4-0.1-2.2-0.2c-0.8-0.1-1.6-0.2-2.4-0.4
					c-0.4-0.9-0.9-1.8-1.4-2.7l0.9-1c0.6,0.1,1.1,0.2,1.6,0.3c0.5,0.1,0.9,0.1,1.3,0.1c2.6,0,4.8-0.9,6.5-2.7
					c1.7-1.8,2.5-4.3,2.5-7.6c0-3.6-0.9-6.3-2.6-8.1c-1.7-1.8-4.3-2.7-7.6-2.7c-1.4,0-3,0.2-4.8,0.6c-0.3,8-0.4,14.8-0.4,20.4
					c0,1.9,0.1,7.9,0.3,17.9c0.1,4,0.2,6.3,0.4,6.9c0.1,0.4,0.4,0.8,0.7,0.9c0.6,0.3,2.8,0.5,6.6,0.8v3.3c-4.6-0.2-8.5-0.3-11.7-0.3
					C620.4,419,615.7,419.1,607.5,419.3z"/>
				<path class="st1" d="M656.6,400.7c0-6.2,1.4-10.8,4.3-13.9c3.5-3.7,8.5-5.5,15-5.5c6.5,0,11.3,1.5,14.3,4.4
					c3,2.9,4.5,7.6,4.5,14c0,6.5-1.7,11.6-5.2,15.1c-3.5,3.5-8.3,5.3-14.4,5.3c-6,0-10.6-1.7-13.8-5
					C658.2,411.8,656.6,407,656.6,400.7z M667.4,398c0,7,0.9,11.9,2.7,14.9c1.4,2.3,3.5,3.4,6.2,3.4c2.4,0,4.3-1,5.6-2.9
					c1.3-1.9,2-5.4,2-10.5c0-7-0.8-11.9-2.4-14.5c-1.3-2.1-3.4-3.2-6.2-3.2c-2.4,0-4.3,1-5.7,2.9C668.1,390,667.4,393.3,667.4,398z"
					/>
				<path class="st1" d="M698.7,419.3v-3.2c2.6-0.1,4.1-0.3,4.5-0.5c0.3-0.2,0.6-0.4,0.7-0.7c0.3-0.6,0.5-2,0.5-4.2
					c0.1-3.8,0.2-7.3,0.2-10.4c0-6-0.1-9.6-0.2-10.7c-0.1-0.7-0.3-1.1-0.7-1.4c-0.4-0.3-2.1-0.5-5-0.6v-3c5.3-0.5,9-1.1,11.3-1.9
					l4-1.5c0.4,0,0.5,0.2,0.5,0.7l0,0.5c-0.1,1.6-0.1,4-0.1,7.1c1.3-1.3,2.8-2.9,4.4-4.8c1.2-1.5,2.2-2.4,3.1-2.9
					c0.9-0.4,2.1-0.7,3.6-0.7c0.8,0,1.7,0.1,2.5,0.4c-0.2,2.6-0.4,6.2-0.5,10.6l-1.8,0.6c-0.6-1-1.3-1.7-2-2.1
					c-0.7-0.4-1.6-0.6-2.8-0.6c-1.6,0-2.9,0.4-4,1.2c-1.1,0.8-1.8,1.7-2.2,2.8c-0.2,0.8-0.3,3.5-0.3,8c0,6.6,0.1,10.5,0.3,11.6
					c0.1,0.7,0.4,1.2,0.7,1.5c0.6,0.4,2.6,0.7,5.9,0.8v3.2l-4.4-0.1c-2.8-0.1-5.2-0.1-7.2-0.1c-1.9,0-4.2,0-6.7,0.1L698.7,419.3z"/>
				<path class="st1" d="M730,387.8l5.2-3.4c-0.1-4.6-0.2-8.7-0.4-12.1c3.6-1.1,6.9-2.4,10.1-4l1.2,0.9c-0.6,3.8-1,8.9-1.2,15.2
					c1.2,0.2,2.4,0.3,3.6,0.3c2.7,0,5-0.2,7.2-0.5l0.4,0.2l-0.4,1.4c-0.4,1.5-0.7,2.8-0.9,4c-3-0.2-5.3-0.3-6.7-0.3
					c-1.1,0-2.1,0.1-3.1,0.2c-0.1,2.6-0.1,5-0.1,7c0,8.8,0.3,13.8,0.8,15s1.8,1.8,3.7,1.8c0.6,0,1.2-0.1,1.9-0.2
					c0.7-0.1,1.4-0.3,2.1-0.5l0.7,1.5c-1.6,1.7-3.1,3.6-4.6,5.4c-1,0.2-1.9,0.3-2.7,0.4c-0.8,0.1-1.6,0.1-2.2,0.1
					c-2.2,0-4-0.4-5.5-1.1c-1.5-0.8-2.5-1.7-3.2-2.9c-0.7-1.2-1-3-1-5.4c0-1.3,0.1-4.5,0.2-9.9c0.1-4.7,0.2-8.4,0.2-11.1l-2-0.1
					c-0.8,0-1.9,0.1-3.2,0.2V387.8z"/>
				<path class="st1" d="M756.3,419.3v-3.2l2.4-0.2c1.6-0.1,2.6-0.3,3-0.7c0.4-0.4,0.7-1.5,0.8-3.3c0.2-3.7,0.3-8,0.3-13.1l-0.1-9.5
					c-2.6,0.1-4.7,0.3-6.4,0.4v-2l3.7-1.9l0.7-0.3l0.4-0.2l1.1-0.6V381c0-2.9,0.4-5.1,1-6.4s2.4-3.3,5.3-5.9
					c3.9-3.5,6.3-5.6,7.3-6.2c1.7-1.1,3.7-1.6,6-1.6c0.7,0,1.5,0.1,2.3,0.2c0.8,0.1,1.6,0.4,2.4,0.6c-0.4,3-0.8,6.3-1.1,9.7
					l-1.5,0.3c-1.1-1.1-2.3-1.9-3.4-2.4c-1.1-0.5-2.2-0.8-3.3-0.8c-1.4,0-2.5,0.3-3.2,1c-0.7,0.6-1.2,1.7-1.3,3.2
					c-0.2,1.5-0.3,5.5-0.3,12h4c2.2,0,4.4-0.2,6.6-0.6l0.5,0.6c-0.4,1.5-0.8,3.1-1,4.8c-1.5-0.1-3-0.2-4.3-0.2h-5.7
					c0,11.3,0.1,18.7,0.2,22.2c0.1,2,0.4,3.2,0.9,3.6c0.6,0.5,2.9,0.9,7,1.1v3.2c-3.8-0.2-7.5-0.2-11-0.2
					C765.8,419,761.5,419.1,756.3,419.3z"/>
				<path class="st1" d="M790.1,400.7c0-6.2,1.4-10.8,4.3-13.9c3.5-3.7,8.5-5.5,15-5.5c6.5,0,11.3,1.5,14.3,4.4
					c3,2.9,4.5,7.6,4.5,14c0,6.5-1.7,11.6-5.2,15.1c-3.5,3.5-8.3,5.3-14.4,5.3c-6,0-10.6-1.7-13.8-5S790.1,407,790.1,400.7z
					 M801,398c0,7,0.9,11.9,2.7,14.9c1.4,2.3,3.5,3.4,6.2,3.4c2.4,0,4.3-1,5.6-2.9s2-5.4,2-10.5c0-7-0.8-11.9-2.4-14.5
					c-1.3-2.1-3.4-3.2-6.2-3.2c-2.4,0-4.3,1-5.7,2.9C801.7,390,801,393.3,801,398z"/>
				<path class="st1" d="M833.7,366.8v-2.3c3.7-0.5,6.6-1,8.8-1.5c2.1-0.5,4.4-1.3,6.9-2.2l1,0.9c-0.4,9.3-0.6,22.3-0.6,39
					c0,3.4,0.1,6.8,0.2,10.2c0.1,2.2,0.2,3.5,0.4,3.8s0.5,0.6,0.9,0.8c0.4,0.2,2,0.4,4.6,0.5v3.2l-4.1-0.1c-2.6-0.1-4.7-0.1-6.4-0.1
					l-11.7,0.2v-3.2l2.9-0.2c1.3-0.1,2.1-0.3,2.5-0.7s0.6-2.1,0.7-4.9c0.1-3.9,0.2-9.5,0.2-16.8l0-16.7c0-5.1-0.2-8-0.4-8.6
					c-0.1-0.3-0.3-0.5-0.6-0.7C838.5,367.1,836.7,366.9,833.7,366.8z"/>
				<path class="st1" d="M860.6,419.3v-3.2c2.9-0.1,4.6-0.3,5.1-0.5s0.7-1,0.9-2.2c0.2-1.6,0.3-5.3,0.3-10.9c0-2.4,0-4.7-0.1-6.7
					l-0.1-4.6c0-1.5-0.2-2.4-0.5-2.8c-0.3-0.4-1.2-0.6-2.6-0.6l-2.9-0.1v-3c6.3-0.5,11.5-1.6,15.5-3.4l1,0.8
					c-0.4,5-0.6,12.3-0.6,21.8c0,5.5,0.1,8.8,0.3,10c0.1,0.8,0.4,1.3,0.7,1.6c0.3,0.2,2.1,0.5,5.1,0.7v3.2
					c-4.7-0.2-8.3-0.2-10.9-0.2C870.3,419,866.6,419.1,860.6,419.3z M871.5,362.5c1.7,0,3.1,0.6,4.3,1.8c1.2,1.2,1.8,2.6,1.8,4.3
					c0,1.7-0.6,3.1-1.8,4.3c-1.2,1.2-2.6,1.8-4.3,1.8c-1.7,0-3.1-0.6-4.3-1.8c-1.2-1.2-1.8-2.6-1.8-4.3c0-1.7,0.6-3.1,1.8-4.3
					C868.3,363.1,869.8,362.5,871.5,362.5z"/>
				<path class="st1" d="M888,400.7c0-6.2,1.4-10.8,4.3-13.9c3.5-3.7,8.5-5.5,15-5.5c6.5,0,11.3,1.5,14.3,4.4c3,2.9,4.5,7.6,4.5,14
					c0,6.5-1.7,11.6-5.2,15.1c-3.5,3.5-8.3,5.3-14.4,5.3c-6,0-10.6-1.7-13.8-5C889.6,411.8,888,407,888,400.7z M898.8,398
					c0,7,0.9,11.9,2.7,14.9c1.4,2.3,3.5,3.4,6.2,3.4c2.4,0,4.3-1,5.6-2.9c1.3-1.9,2-5.4,2-10.5c0-7-0.8-11.9-2.4-14.5
					c-1.3-2.1-3.4-3.2-6.2-3.2c-2.4,0-4.3,1-5.7,2.9S898.8,393.3,898.8,398z"/>
				<path class="st1" d="M988.4,400v-3.2c4.7,0.1,9,0.2,12.7,0.2c3.4,0,7.2-0.1,11.1-0.2v2.5c-1.1,0.4-2.2,0.8-3.3,1.3
					c-0.3,2.6-0.5,4.9-0.5,6.7c0,1.3,0.2,4,0.5,7.9c-5.2,1.9-9.5,3.1-13,3.8c-3.5,0.7-7.1,1-10.8,1c-10.1,0-17.9-2.6-23.6-7.8
					c-5.7-5.2-8.5-12-8.5-20.3c0-8.5,2.9-15.4,8.7-20.5s14.2-7.7,25-7.7c3.8,0,7.5,0.3,11,0.9c3.5,0.6,6.9,1.5,10,2.7l0.4,0.6
					c-0.8,3.3-1.3,7.4-1.7,12.4h-3.3c0-2.5-0.2-4.7-0.5-6.6c-1.7-1.9-3.8-3.4-6.4-4.3s-5.7-1.4-9.3-1.4c-6.7,0-12,2-16,6.1
					c-4,4.1-6,9.6-6,16.7c0,7.5,2.1,13.6,6.3,18.2s9.3,6.9,15.5,6.9c3.3,0,6.7-0.8,10.4-2.4c0.2-2,0.3-3.9,0.3-5.7
					c0-4-0.2-6.2-0.7-6.6C996.3,400.7,993.5,400.3,988.4,400z"/>
				<path class="st1" d="M1018.5,419.3v-3.2c2.7-0.1,4.2-0.3,4.6-0.5s0.6-0.7,0.7-1.4c0.2-1.3,0.3-4.3,0.3-9.1
					c0-10.1-0.1-15.5-0.4-16.3c-0.2-0.7-1.1-1.1-2.7-1.1l-2.5-0.1v-3c3.2-0.3,5.9-0.8,8.2-1.3c2.3-0.5,4.3-1.1,6.1-1.9
					c0.4-0.1,0.6-0.2,0.8-0.2c0.4,0,0.5,0.3,0.5,1c0,0.5,0,1.2-0.1,2c0,0.4-0.1,1-0.1,2v1.4l6.4-4.8c1.4-1,3.4-1.5,6.2-1.5
					c2.8,0,5,0.5,6.6,1.6c1.6,1.1,2.9,2.8,3.7,5.2l6.6-5.3c1.3-1,3.1-1.5,5.4-1.5c4.1,0,7.1,1,9,3c1.9,2,2.9,5.3,2.9,9.8l-0.1,3.3
					c-0.1,3.6-0.2,6.8-0.2,9.6c0,3.7,0.1,6.2,0.4,7.3c0.2,0.6,0.4,1,0.8,1.3c0.4,0.2,1.8,0.5,4.4,0.6v3.2c-3.2-0.2-6.1-0.2-8.5-0.2
					c-2.3,0-4.8,0.1-7.3,0.2l-0.5-0.7c0.7-5.6,1-11.1,1-16.4c0-6.3-0.5-10.3-1.5-11.9c-1-1.6-2.7-2.4-5.2-2.4c-1.6,0-3,0.4-4.3,1.2
					c-1.2,0.8-2,1.7-2.4,2.8c-0.3,0.7-0.4,3-0.4,6.9c0,6.9,0.1,11.7,0.3,14.3c0.1,1.2,0.3,1.9,0.7,2.3c0.4,0.3,2.1,0.6,5,0.8v3.2
					c-3.4-0.2-6.8-0.2-10-0.2c-4.1,0-7.8,0.1-11,0.2v-3.2c2.6,0,4.1-0.4,4.5-1.1s0.7-4,0.7-9.8c0-6.6-0.1-10.7-0.4-12.4
					c-0.3-1.6-0.9-2.8-1.9-3.7c-1-0.8-2.4-1.3-4.2-1.3c-1.3,0-2.5,0.3-3.6,0.9c-1.1,0.6-2,1.5-2.7,2.5c-0.4,0.6-0.6,1.5-0.6,2.8
					l0,1.5c0.1,0.7,0.1,2.8,0.1,6.2l0,4.6c0,4.4,0.1,7.1,0.2,7.9c0.1,0.5,0.3,0.9,0.6,1.1c0.4,0.2,1.8,0.5,4.3,0.7v3.2
					c-3.1-0.2-6.5-0.2-10.3-0.2C1027.7,419,1024.2,419.1,1018.5,419.3z"/>
				<path class="st1" d="M1096.7,420.1l-1.9-0.7c0.5-6.3,0.7-15,0.7-26.2c0-5,0-8.9-0.1-11.7l-0.2-10.1c0-1.5-0.1-2.6-0.4-3.1
					c-0.2-0.3-0.5-0.6-1-0.7c-0.3-0.1-1.9-0.2-4.6-0.3v-2.8c1.4,0,3.7-0.3,6.8-0.9c3.1-0.6,5.5-1.2,7-1.9l1.7-0.7
					c0.5,0,0.7,0.3,0.7,0.9l-0.1,4.1c-0.1,1.4-0.1,8.8-0.3,22.2l4.7-3.9c1.5-1.3,2.8-2.1,4-2.5c1.2-0.4,2.6-0.6,4.3-0.6
					c4.4,0,7.9,1.4,10.5,4.2c2.6,2.8,4,6.4,4,11c0,2.2-0.4,4.5-1.1,6.9s-1.6,4.3-2.7,5.8c-1.1,1.5-2.5,2.8-4.2,4
					c-2.2,1.4-4,2.6-5.5,3.8c-1.8,1.4-3.3,2.2-4.5,2.7c-1.2,0.4-2.7,0.6-4.5,0.6c-1.7,0-3.4-0.2-4.9-0.7c-1.5-0.4-3.2-1.3-5.1-2.4
					C1099.5,417.5,1098.3,418.5,1096.7,420.1z M1105.1,392.4v17.9c1,1.4,2.1,2.5,3.5,3.2c1.4,0.7,2.9,1.1,4.6,1.1
					c2.8,0,5-1.1,6.8-3.3c1.7-2.2,2.6-5.6,2.6-10.1c0-4.3-0.9-7.5-2.6-9.7c-1.8-2.2-4.1-3.3-6.9-3.3c-1.5,0-2.9,0.3-4.2,1
					S1106.2,391,1105.1,392.4z"/>
				<path class="st1" d="M1138.9,419.3V416c3.4-0.2,5.4-0.4,5.8-0.7c0.5-0.3,0.8-0.9,0.9-1.9c0.3-1.4,0.4-5,0.4-10.8l0-21.4
					c0-7.2-0.2-11.2-0.4-11.8c-0.1-0.4-0.4-0.7-0.7-0.9c-0.5-0.3-2.5-0.6-6.1-0.8v-3.3c5.2,0.2,9.4,0.3,12.4,0.3
					c4.8,0,9.2-0.1,13.2-0.3v3.3c-3.2,0.2-5.1,0.4-5.7,0.7c-0.3,0.2-0.6,0.4-0.7,0.7c-0.3,0.5-0.4,2-0.5,4.5
					c-0.1,3.8-0.2,7.6-0.2,11.4v3.2c2.7,0.1,7,0.2,12.9,0.2c5.2,0,9.1-0.1,11.6-0.2c0-8.5-0.1-14.1-0.3-16.9
					c-0.1-1.5-0.4-2.4-0.8-2.7c-0.6-0.5-2.6-0.8-6.1-1v-3.3c6.5,0.2,10.9,0.3,13.2,0.3c3.9,0,8.1-0.1,12.5-0.3v3.3
					c-3.3,0.2-5.3,0.5-5.8,0.7c-0.3,0.2-0.5,0.4-0.7,0.7c-0.2,0.5-0.4,2.7-0.5,6.4c-0.2,5.7-0.3,10.3-0.3,13.8l0.2,17.8
					c0.1,4,0.2,6.3,0.4,6.9s0.5,1,0.9,1.3c0.4,0.2,2.4,0.5,5.8,0.7v3.3l-4.3-0.1c-3.3-0.1-5.8-0.2-7.7-0.2c-3.9,0-8.4,0.1-13.6,0.3
					V416c3.5-0.2,5.4-0.4,5.9-0.8c0.5-0.4,0.8-1.5,0.9-3.2c0.2-3,0.3-9.3,0.4-19c-2.9,0-6.2,0-9.7,0c-5.6,0-10.5,0.1-14.7,0.2v2.6
					c0,6.8,0.1,12,0.3,15.4c0.1,2.3,0.4,3.6,0.9,4s2.5,0.7,6,0.9v3.3l-4.6-0.1c-2.9-0.1-5.5-0.2-7.8-0.2L1138.9,419.3z"/>
			</g>
			<g>
				<radialGradient id="SVGID_1_" cx="784.7095" cy="390.4532" r="294.5818" gradientUnits="userSpaceOnUse">
					<stop  offset="0" style="stop-color:#F7EA94"/>
					<stop  offset="0.25" style="stop-color:#BA8A2D"/>
					<stop  offset="0.5405" style="stop-color:#F7EA94"/>
					<stop  offset="0.75" style="stop-color:#BA8A2D"/>
					<stop  offset="1" style="stop-color:#F7EA94"/>
				</radialGradient>
				<path class="st2" d="M369.2,419.3V416c3.6-0.2,5.6-0.5,6.1-0.9s0.8-1.4,0.9-3.1c0.2-3.4,0.3-9.9,0.3-19.2
					c0-3.6-0.1-8.8-0.2-15.6c-0.1-4.7-0.2-7.2-0.3-7.7c-0.2-0.5-0.4-0.8-0.8-1c-0.6-0.3-2.6-0.5-5.9-0.7v-3.3
					c5.4,0.2,9.5,0.3,12.3,0.3c4.9,0,9.3-0.1,13.3-0.3v3.3c-3.6,0.2-5.6,0.5-6,0.8c-0.5,0.4-0.8,1.2-0.9,2.4
					c-0.2,2.5-0.3,7.6-0.3,15.2c0,10.2,0,17.3,0.1,21.3c0.1,4,0.3,6.4,0.7,7.1c0.2,0.3,0.5,0.6,1,0.8c0.5,0.2,2.3,0.4,5.4,0.6v3.3
					l-4.6-0.1c-2.9-0.1-5.5-0.2-7.8-0.2L369.2,419.3z"/>
				<radialGradient id="SVGID_2_" cx="784.7095" cy="390.4532" r="294.5818" gradientUnits="userSpaceOnUse">
					<stop  offset="0" style="stop-color:#F7EA94"/>
					<stop  offset="0.25" style="stop-color:#BA8A2D"/>
					<stop  offset="0.5405" style="stop-color:#F7EA94"/>
					<stop  offset="0.75" style="stop-color:#BA8A2D"/>
					<stop  offset="1" style="stop-color:#F7EA94"/>
				</radialGradient>
				<path class="st3" d="M399.9,419.3v-3.2c2.7-0.1,4.2-0.3,4.6-0.5s0.6-0.7,0.7-1.4c0.2-1.3,0.3-4.3,0.3-9.1
					c0-10.1-0.1-15.5-0.4-16.3c-0.2-0.7-1.1-1.1-2.7-1.1l-2.5-0.1v-3c3.2-0.3,5.9-0.8,8.2-1.3s4.3-1.1,6.1-1.9
					c0.4-0.1,0.6-0.2,0.8-0.2c0.4,0,0.5,0.3,0.5,1c0,0.5,0,1.2-0.1,2c0,0.4-0.1,1-0.1,2v1.4l6.4-4.8c1.4-1,3.4-1.5,6.2-1.5
					c2.8,0,5,0.5,6.6,1.6c1.6,1.1,2.9,2.8,3.7,5.2l6.6-5.3c1.3-1,3.1-1.5,5.4-1.5c4.1,0,7.1,1,9,3c1.9,2,2.9,5.3,2.9,9.8l-0.1,3.3
					c-0.1,3.6-0.2,6.8-0.2,9.6c0,3.7,0.1,6.2,0.4,7.3c0.2,0.6,0.4,1,0.8,1.3c0.4,0.2,1.8,0.5,4.4,0.6v3.2c-3.2-0.2-6.1-0.2-8.5-0.2
					c-2.3,0-4.8,0.1-7.3,0.2l-0.5-0.7c0.7-5.6,1-11.1,1-16.4c0-6.3-0.5-10.3-1.5-11.9c-1-1.6-2.7-2.4-5.2-2.4c-1.6,0-3,0.4-4.3,1.2
					c-1.2,0.8-2,1.7-2.4,2.8c-0.3,0.7-0.4,3-0.4,6.9c0,6.9,0.1,11.7,0.3,14.3c0.1,1.2,0.3,1.9,0.7,2.3c0.4,0.3,2.1,0.6,5,0.8v3.2
					c-3.4-0.2-6.8-0.2-10-0.2c-4.1,0-7.8,0.1-11,0.2v-3.2c2.6,0,4.1-0.4,4.5-1.1c0.4-0.7,0.7-4,0.7-9.8c0-6.6-0.1-10.7-0.4-12.4
					c-0.3-1.6-0.9-2.8-1.9-3.7c-1-0.8-2.4-1.3-4.2-1.3c-1.3,0-2.5,0.3-3.6,0.9c-1.1,0.6-2,1.5-2.7,2.5c-0.4,0.6-0.6,1.5-0.6,2.8
					l0,1.5c0.1,0.7,0.1,2.8,0.1,6.2l0,4.6c0,4.4,0.1,7.1,0.2,7.9c0.1,0.5,0.3,0.9,0.6,1.1c0.4,0.2,1.8,0.5,4.3,0.7v3.2
					c-3.1-0.2-6.5-0.2-10.3-0.2C409.2,419,405.7,419.1,399.9,419.3z"/>
				<radialGradient id="SVGID_3_" cx="784.7095" cy="390.4532" r="294.5818" gradientUnits="userSpaceOnUse">
					<stop  offset="0" style="stop-color:#F7EA94"/>
					<stop  offset="0.25" style="stop-color:#BA8A2D"/>
					<stop  offset="0.5405" style="stop-color:#F7EA94"/>
					<stop  offset="0.75" style="stop-color:#BA8A2D"/>
					<stop  offset="1" style="stop-color:#F7EA94"/>
				</radialGradient>
				<path class="st4" d="M471.1,419.3v-3.2c2.7-0.1,4.2-0.3,4.6-0.5s0.6-0.7,0.7-1.4c0.2-1.3,0.3-4.3,0.3-9.1
					c0-10.1-0.1-15.5-0.4-16.3c-0.2-0.7-1.1-1.1-2.7-1.1l-2.5-0.1v-3c3.2-0.3,5.9-0.8,8.2-1.3s4.3-1.1,6.1-1.9
					c0.4-0.1,0.6-0.2,0.8-0.2c0.4,0,0.5,0.3,0.5,1c0,0.5,0,1.2-0.1,2c0,0.4-0.1,1-0.1,2v1.4l6.4-4.8c1.4-1,3.4-1.5,6.2-1.5
					c2.8,0,5,0.5,6.6,1.6c1.6,1.1,2.9,2.8,3.7,5.2l6.6-5.3c1.3-1,3.1-1.5,5.4-1.5c4.1,0,7.1,1,9,3c1.9,2,2.9,5.3,2.9,9.8l-0.1,3.3
					c-0.1,3.6-0.2,6.8-0.2,9.6c0,3.7,0.1,6.2,0.4,7.3c0.2,0.6,0.4,1,0.8,1.3c0.4,0.2,1.8,0.5,4.4,0.6v3.2c-3.2-0.2-6.1-0.2-8.5-0.2
					c-2.3,0-4.8,0.1-7.3,0.2l-0.5-0.7c0.7-5.6,1-11.1,1-16.4c0-6.3-0.5-10.3-1.5-11.9c-1-1.6-2.7-2.4-5.2-2.4c-1.6,0-3,0.4-4.3,1.2
					c-1.2,0.8-2,1.7-2.4,2.8c-0.3,0.7-0.4,3-0.4,6.9c0,6.9,0.1,11.7,0.3,14.3c0.1,1.2,0.3,1.9,0.7,2.3c0.4,0.3,2.1,0.6,5,0.8v3.2
					c-3.4-0.2-6.8-0.2-10-0.2c-4.1,0-7.8,0.1-11,0.2v-3.2c2.6,0,4.1-0.4,4.5-1.1c0.4-0.7,0.7-4,0.7-9.8c0-6.6-0.1-10.7-0.4-12.4
					c-0.3-1.6-0.9-2.8-1.9-3.7c-1-0.8-2.4-1.3-4.2-1.3c-1.3,0-2.5,0.3-3.6,0.9c-1.1,0.6-2,1.5-2.7,2.5c-0.4,0.6-0.6,1.5-0.6,2.8
					l0,1.5c0.1,0.7,0.1,2.8,0.1,6.2l0,4.6c0,4.4,0.1,7.1,0.2,7.9c0.1,0.5,0.3,0.9,0.6,1.1c0.4,0.2,1.8,0.5,4.3,0.7v3.2
					c-3.1-0.2-6.5-0.2-10.3-0.2C480.4,419,476.9,419.1,471.1,419.3z"/>
				<radialGradient id="SVGID_4_" cx="784.7095" cy="390.4532" r="294.5818" gradientUnits="userSpaceOnUse">
					<stop  offset="0" style="stop-color:#F7EA94"/>
					<stop  offset="0.25" style="stop-color:#BA8A2D"/>
					<stop  offset="0.5405" style="stop-color:#F7EA94"/>
					<stop  offset="0.75" style="stop-color:#BA8A2D"/>
					<stop  offset="1" style="stop-color:#F7EA94"/>
				</radialGradient>
				<path class="st5" d="M543.1,400.7c0-6.2,1.4-10.8,4.3-13.9c3.5-3.7,8.5-5.5,15-5.5c6.5,0,11.3,1.5,14.3,4.4
					c3,2.9,4.5,7.6,4.5,14c0,6.5-1.7,11.6-5.2,15.1c-3.5,3.5-8.3,5.3-14.4,5.3c-6,0-10.6-1.7-13.8-5
					C544.7,411.8,543.1,407,543.1,400.7z M554,398c0,7,0.9,11.9,2.7,14.9c1.4,2.3,3.5,3.4,6.2,3.4c2.4,0,4.3-1,5.6-2.9
					c1.3-1.9,2-5.4,2-10.5c0-7-0.8-11.9-2.4-14.5c-1.3-2.1-3.4-3.2-6.2-3.2c-2.4,0-4.3,1-5.7,2.9C554.7,390,554,393.3,554,398z"/>
				<radialGradient id="SVGID_5_" cx="784.7095" cy="390.4532" r="294.5818" gradientUnits="userSpaceOnUse">
					<stop  offset="0" style="stop-color:#F7EA94"/>
					<stop  offset="0.25" style="stop-color:#BA8A2D"/>
					<stop  offset="0.5405" style="stop-color:#F7EA94"/>
					<stop  offset="0.75" style="stop-color:#BA8A2D"/>
					<stop  offset="1" style="stop-color:#F7EA94"/>
				</radialGradient>
				<path class="st6" d="M607.5,419.3V416c3.1-0.2,4.9-0.5,5.3-0.7c0.3-0.2,0.5-0.4,0.7-0.8c0.3-0.7,0.4-3.3,0.6-8.1
					c0.1-4.7,0.2-9.3,0.2-13.8c0-8.3-0.1-14.3-0.3-17.8c-0.2-3.6-0.4-5.6-0.8-6c-0.4-0.4-1.5-0.7-3.4-0.8l-2.3-0.2v-3.3l4.4,0.2
					c2.7,0.1,4.9,0.1,6.5,0.1c2.2,0,5.8-0.1,10.7-0.2c2.7-0.1,4.6-0.1,5.9-0.1c4.7,0,8.1,0.4,10.3,1.3c2.2,0.9,3.9,2.2,5.1,4
					c1.2,1.8,1.7,4,1.7,6.7c0,4.8-1.7,8.9-5.1,12.1c-3.4,3.3-7.8,4.9-13.1,4.9c-0.7,0-1.4-0.1-2.2-0.2c-0.8-0.1-1.6-0.2-2.4-0.4
					c-0.4-0.9-0.9-1.8-1.4-2.7l0.9-1c0.6,0.1,1.1,0.2,1.6,0.3c0.5,0.1,0.9,0.1,1.3,0.1c2.6,0,4.8-0.9,6.5-2.7
					c1.7-1.8,2.5-4.3,2.5-7.6c0-3.6-0.9-6.3-2.6-8.1c-1.7-1.8-4.3-2.7-7.6-2.7c-1.4,0-3,0.2-4.8,0.6c-0.3,8-0.4,14.8-0.4,20.4
					c0,1.9,0.1,7.9,0.3,17.9c0.1,4,0.2,6.3,0.4,6.9c0.1,0.4,0.4,0.8,0.7,0.9c0.6,0.3,2.8,0.5,6.6,0.8v3.3c-4.6-0.2-8.5-0.3-11.7-0.3
					C620.4,419,615.7,419.1,607.5,419.3z"/>
				<radialGradient id="SVGID_6_" cx="784.7095" cy="390.4532" r="294.5818" gradientUnits="userSpaceOnUse">
					<stop  offset="0" style="stop-color:#F7EA94"/>
					<stop  offset="0.25" style="stop-color:#BA8A2D"/>
					<stop  offset="0.5405" style="stop-color:#F7EA94"/>
					<stop  offset="0.75" style="stop-color:#BA8A2D"/>
					<stop  offset="1" style="stop-color:#F7EA94"/>
				</radialGradient>
				<path class="st7" d="M656.6,400.7c0-6.2,1.4-10.8,4.3-13.9c3.5-3.7,8.5-5.5,15-5.5c6.5,0,11.3,1.5,14.3,4.4
					c3,2.9,4.5,7.6,4.5,14c0,6.5-1.7,11.6-5.2,15.1c-3.5,3.5-8.3,5.3-14.4,5.3c-6,0-10.6-1.7-13.8-5
					C658.2,411.8,656.6,407,656.6,400.7z M667.4,398c0,7,0.9,11.9,2.7,14.9c1.4,2.3,3.5,3.4,6.2,3.4c2.4,0,4.3-1,5.6-2.9
					c1.3-1.9,2-5.4,2-10.5c0-7-0.8-11.9-2.4-14.5c-1.3-2.1-3.4-3.2-6.2-3.2c-2.4,0-4.3,1-5.7,2.9C668.1,390,667.4,393.3,667.4,398z"
					/>
				<radialGradient id="SVGID_7_" cx="784.7095" cy="390.4532" r="294.5818" gradientUnits="userSpaceOnUse">
					<stop  offset="0" style="stop-color:#F7EA94"/>
					<stop  offset="0.25" style="stop-color:#BA8A2D"/>
					<stop  offset="0.5405" style="stop-color:#F7EA94"/>
					<stop  offset="0.75" style="stop-color:#BA8A2D"/>
					<stop  offset="1" style="stop-color:#F7EA94"/>
				</radialGradient>
				<path class="st8" d="M698.7,419.3v-3.2c2.6-0.1,4.1-0.3,4.5-0.5c0.3-0.2,0.6-0.4,0.7-0.7c0.3-0.6,0.5-2,0.5-4.2
					c0.1-3.8,0.2-7.3,0.2-10.4c0-6-0.1-9.6-0.2-10.7c-0.1-0.7-0.3-1.1-0.7-1.4c-0.4-0.3-2.1-0.5-5-0.6v-3c5.3-0.5,9-1.1,11.3-1.9
					l4-1.5c0.4,0,0.5,0.2,0.5,0.7l0,0.5c-0.1,1.6-0.1,4-0.1,7.1c1.3-1.3,2.8-2.9,4.4-4.8c1.2-1.5,2.2-2.4,3.1-2.9
					c0.9-0.4,2.1-0.7,3.6-0.7c0.8,0,1.7,0.1,2.5,0.4c-0.2,2.6-0.4,6.2-0.5,10.6l-1.8,0.6c-0.6-1-1.3-1.7-2-2.1
					c-0.7-0.4-1.6-0.6-2.8-0.6c-1.6,0-2.9,0.4-4,1.2c-1.1,0.8-1.8,1.7-2.2,2.8c-0.2,0.8-0.3,3.5-0.3,8c0,6.6,0.1,10.5,0.3,11.6
					c0.1,0.7,0.4,1.2,0.7,1.5c0.6,0.4,2.6,0.7,5.9,0.8v3.2l-4.4-0.1c-2.8-0.1-5.2-0.1-7.2-0.1c-1.9,0-4.2,0-6.7,0.1L698.7,419.3z"/>
				<radialGradient id="SVGID_8_" cx="784.7095" cy="390.4532" r="294.5818" gradientUnits="userSpaceOnUse">
					<stop  offset="0" style="stop-color:#F7EA94"/>
					<stop  offset="0.25" style="stop-color:#BA8A2D"/>
					<stop  offset="0.5405" style="stop-color:#F7EA94"/>
					<stop  offset="0.75" style="stop-color:#BA8A2D"/>
					<stop  offset="1" style="stop-color:#F7EA94"/>
				</radialGradient>
				<path class="st9" d="M730,387.8l5.2-3.4c-0.1-4.6-0.2-8.7-0.4-12.1c3.6-1.1,6.9-2.4,10.1-4l1.2,0.9c-0.6,3.8-1,8.9-1.2,15.2
					c1.2,0.2,2.4,0.3,3.6,0.3c2.7,0,5-0.2,7.2-0.5l0.4,0.2l-0.4,1.4c-0.4,1.5-0.7,2.8-0.9,4c-3-0.2-5.3-0.3-6.7-0.3
					c-1.1,0-2.1,0.1-3.1,0.2c-0.1,2.6-0.1,5-0.1,7c0,8.8,0.3,13.8,0.8,15s1.8,1.8,3.7,1.8c0.6,0,1.2-0.1,1.9-0.2
					c0.7-0.1,1.4-0.3,2.1-0.5l0.7,1.5c-1.6,1.7-3.1,3.6-4.6,5.4c-1,0.2-1.9,0.3-2.7,0.4c-0.8,0.1-1.6,0.1-2.2,0.1
					c-2.2,0-4-0.4-5.5-1.1c-1.5-0.8-2.5-1.7-3.2-2.9c-0.7-1.2-1-3-1-5.4c0-1.3,0.1-4.5,0.2-9.9c0.1-4.7,0.2-8.4,0.2-11.1l-2-0.1
					c-0.8,0-1.9,0.1-3.2,0.2V387.8z"/>
				<radialGradient id="SVGID_9_" cx="784.7095" cy="390.4532" r="294.5818" gradientUnits="userSpaceOnUse">
					<stop  offset="0" style="stop-color:#F7EA94"/>
					<stop  offset="0.25" style="stop-color:#BA8A2D"/>
					<stop  offset="0.5405" style="stop-color:#F7EA94"/>
					<stop  offset="0.75" style="stop-color:#BA8A2D"/>
					<stop  offset="1" style="stop-color:#F7EA94"/>
				</radialGradient>
				<path class="st10" d="M756.3,419.3v-3.2l2.4-0.2c1.6-0.1,2.6-0.3,3-0.7c0.4-0.4,0.7-1.5,0.8-3.3c0.2-3.7,0.3-8,0.3-13.1
					l-0.1-9.5c-2.6,0.1-4.7,0.3-6.4,0.4v-2l3.7-1.9l0.7-0.3l0.4-0.2l1.1-0.6V381c0-2.9,0.4-5.1,1-6.4s2.4-3.3,5.3-5.9
					c3.9-3.5,6.3-5.6,7.3-6.2c1.7-1.1,3.7-1.6,6-1.6c0.7,0,1.5,0.1,2.3,0.2c0.8,0.1,1.6,0.4,2.4,0.6c-0.4,3-0.8,6.3-1.1,9.7
					l-1.5,0.3c-1.1-1.1-2.3-1.9-3.4-2.4c-1.1-0.5-2.2-0.8-3.3-0.8c-1.4,0-2.5,0.3-3.2,1c-0.7,0.6-1.2,1.7-1.3,3.2
					c-0.2,1.5-0.3,5.5-0.3,12h4c2.2,0,4.4-0.2,6.6-0.6l0.5,0.6c-0.4,1.5-0.8,3.1-1,4.8c-1.5-0.1-3-0.2-4.3-0.2h-5.7
					c0,11.3,0.1,18.7,0.2,22.2c0.1,2,0.4,3.2,0.9,3.6c0.6,0.5,2.9,0.9,7,1.1v3.2c-3.8-0.2-7.5-0.2-11-0.2
					C765.8,419,761.5,419.1,756.3,419.3z"/>
				<radialGradient id="SVGID_10_" cx="784.7095" cy="390.4532" r="294.5818" gradientUnits="userSpaceOnUse">
					<stop  offset="0" style="stop-color:#F7EA94"/>
					<stop  offset="0.25" style="stop-color:#BA8A2D"/>
					<stop  offset="0.5405" style="stop-color:#F7EA94"/>
					<stop  offset="0.75" style="stop-color:#BA8A2D"/>
					<stop  offset="1" style="stop-color:#F7EA94"/>
				</radialGradient>
				<path class="st11" d="M790.1,400.7c0-6.2,1.4-10.8,4.3-13.9c3.5-3.7,8.5-5.5,15-5.5c6.5,0,11.3,1.5,14.3,4.4
					c3,2.9,4.5,7.6,4.5,14c0,6.5-1.7,11.6-5.2,15.1c-3.5,3.5-8.3,5.3-14.4,5.3c-6,0-10.6-1.7-13.8-5S790.1,407,790.1,400.7z
					 M801,398c0,7,0.9,11.9,2.7,14.9c1.4,2.3,3.5,3.4,6.2,3.4c2.4,0,4.3-1,5.6-2.9s2-5.4,2-10.5c0-7-0.8-11.9-2.4-14.5
					c-1.3-2.1-3.4-3.2-6.2-3.2c-2.4,0-4.3,1-5.7,2.9C801.7,390,801,393.3,801,398z"/>
				<radialGradient id="SVGID_11_" cx="784.7095" cy="390.4532" r="294.5818" gradientUnits="userSpaceOnUse">
					<stop  offset="0" style="stop-color:#F7EA94"/>
					<stop  offset="0.25" style="stop-color:#BA8A2D"/>
					<stop  offset="0.5405" style="stop-color:#F7EA94"/>
					<stop  offset="0.75" style="stop-color:#BA8A2D"/>
					<stop  offset="1" style="stop-color:#F7EA94"/>
				</radialGradient>
				<path class="st12" d="M833.7,366.8v-2.3c3.7-0.5,6.6-1,8.8-1.5c2.1-0.5,4.4-1.3,6.9-2.2l1,0.9c-0.4,9.3-0.6,22.3-0.6,39
					c0,3.4,0.1,6.8,0.2,10.2c0.1,2.2,0.2,3.5,0.4,3.8s0.5,0.6,0.9,0.8c0.4,0.2,2,0.4,4.6,0.5v3.2l-4.1-0.1c-2.6-0.1-4.7-0.1-6.4-0.1
					l-11.7,0.2v-3.2l2.9-0.2c1.3-0.1,2.1-0.3,2.5-0.7s0.6-2.1,0.7-4.9c0.1-3.9,0.2-9.5,0.2-16.8l0-16.7c0-5.1-0.2-8-0.4-8.6
					c-0.1-0.3-0.3-0.5-0.6-0.7C838.5,367.1,836.7,366.9,833.7,366.8z"/>
				<radialGradient id="SVGID_12_" cx="784.7095" cy="390.4532" r="294.5818" gradientUnits="userSpaceOnUse">
					<stop  offset="0" style="stop-color:#F7EA94"/>
					<stop  offset="0.25" style="stop-color:#BA8A2D"/>
					<stop  offset="0.5405" style="stop-color:#F7EA94"/>
					<stop  offset="0.75" style="stop-color:#BA8A2D"/>
					<stop  offset="1" style="stop-color:#F7EA94"/>
				</radialGradient>
				<path class="st13" d="M860.6,419.3v-3.2c2.9-0.1,4.6-0.3,5.1-0.5s0.7-1,0.9-2.2c0.2-1.6,0.3-5.3,0.3-10.9c0-2.4,0-4.7-0.1-6.7
					l-0.1-4.6c0-1.5-0.2-2.4-0.5-2.8c-0.3-0.4-1.2-0.6-2.6-0.6l-2.9-0.1v-3c6.3-0.5,11.5-1.6,15.5-3.4l1,0.8
					c-0.4,5-0.6,12.3-0.6,21.8c0,5.5,0.1,8.8,0.3,10c0.1,0.8,0.4,1.3,0.7,1.6c0.3,0.2,2.1,0.5,5.1,0.7v3.2
					c-4.7-0.2-8.3-0.2-10.9-0.2C870.3,419,866.6,419.1,860.6,419.3z M871.5,362.5c1.7,0,3.1,0.6,4.3,1.8c1.2,1.2,1.8,2.6,1.8,4.3
					c0,1.7-0.6,3.1-1.8,4.3c-1.2,1.2-2.6,1.8-4.3,1.8c-1.7,0-3.1-0.6-4.3-1.8c-1.2-1.2-1.8-2.6-1.8-4.3c0-1.7,0.6-3.1,1.8-4.3
					C868.3,363.1,869.8,362.5,871.5,362.5z"/>
				<radialGradient id="SVGID_13_" cx="784.7095" cy="390.4532" r="294.5818" gradientUnits="userSpaceOnUse">
					<stop  offset="0" style="stop-color:#F7EA94"/>
					<stop  offset="0.25" style="stop-color:#BA8A2D"/>
					<stop  offset="0.5405" style="stop-color:#F7EA94"/>
					<stop  offset="0.75" style="stop-color:#BA8A2D"/>
					<stop  offset="1" style="stop-color:#F7EA94"/>
				</radialGradient>
				<path class="st14" d="M888,400.7c0-6.2,1.4-10.8,4.3-13.9c3.5-3.7,8.5-5.5,15-5.5c6.5,0,11.3,1.5,14.3,4.4c3,2.9,4.5,7.6,4.5,14
					c0,6.5-1.7,11.6-5.2,15.1c-3.5,3.5-8.3,5.3-14.4,5.3c-6,0-10.6-1.7-13.8-5C889.6,411.8,888,407,888,400.7z M898.8,398
					c0,7,0.9,11.9,2.7,14.9c1.4,2.3,3.5,3.4,6.2,3.4c2.4,0,4.3-1,5.6-2.9c1.3-1.9,2-5.4,2-10.5c0-7-0.8-11.9-2.4-14.5
					c-1.3-2.1-3.4-3.2-6.2-3.2c-2.4,0-4.3,1-5.7,2.9S898.8,393.3,898.8,398z"/>
				<radialGradient id="SVGID_14_" cx="784.7095" cy="390.4532" r="294.5818" gradientUnits="userSpaceOnUse">
					<stop  offset="0" style="stop-color:#F7EA94"/>
					<stop  offset="0.25" style="stop-color:#BA8A2D"/>
					<stop  offset="0.5405" style="stop-color:#F7EA94"/>
					<stop  offset="0.75" style="stop-color:#BA8A2D"/>
					<stop  offset="1" style="stop-color:#F7EA94"/>
				</radialGradient>
				<path class="st15" d="M988.4,400v-3.2c4.7,0.1,9,0.2,12.7,0.2c3.4,0,7.2-0.1,11.1-0.2v2.5c-1.1,0.4-2.2,0.8-3.3,1.3
					c-0.3,2.6-0.5,4.9-0.5,6.7c0,1.3,0.2,4,0.5,7.9c-5.2,1.9-9.5,3.1-13,3.8c-3.5,0.7-7.1,1-10.8,1c-10.1,0-17.9-2.6-23.6-7.8
					c-5.7-5.2-8.5-12-8.5-20.3c0-8.5,2.9-15.4,8.7-20.5s14.2-7.7,25-7.7c3.8,0,7.5,0.3,11,0.9c3.5,0.6,6.9,1.5,10,2.7l0.4,0.6
					c-0.8,3.3-1.3,7.4-1.7,12.4h-3.3c0-2.5-0.2-4.7-0.5-6.6c-1.7-1.9-3.8-3.4-6.4-4.3s-5.7-1.4-9.3-1.4c-6.7,0-12,2-16,6.1
					c-4,4.1-6,9.6-6,16.7c0,7.5,2.1,13.6,6.3,18.2s9.3,6.9,15.5,6.9c3.3,0,6.7-0.8,10.4-2.4c0.2-2,0.3-3.9,0.3-5.7
					c0-4-0.2-6.2-0.7-6.6C996.3,400.7,993.5,400.3,988.4,400z"/>
				<radialGradient id="SVGID_15_" cx="784.7095" cy="390.4532" r="294.5818" gradientUnits="userSpaceOnUse">
					<stop  offset="0" style="stop-color:#F7EA94"/>
					<stop  offset="0.25" style="stop-color:#BA8A2D"/>
					<stop  offset="0.5405" style="stop-color:#F7EA94"/>
					<stop  offset="0.75" style="stop-color:#BA8A2D"/>
					<stop  offset="1" style="stop-color:#F7EA94"/>
				</radialGradient>
				<path class="st16" d="M1018.5,419.3v-3.2c2.7-0.1,4.2-0.3,4.6-0.5s0.6-0.7,0.7-1.4c0.2-1.3,0.3-4.3,0.3-9.1
					c0-10.1-0.1-15.5-0.4-16.3c-0.2-0.7-1.1-1.1-2.7-1.1l-2.5-0.1v-3c3.2-0.3,5.9-0.8,8.2-1.3c2.3-0.5,4.3-1.1,6.1-1.9
					c0.4-0.1,0.6-0.2,0.8-0.2c0.4,0,0.5,0.3,0.5,1c0,0.5,0,1.2-0.1,2c0,0.4-0.1,1-0.1,2v1.4l6.4-4.8c1.4-1,3.4-1.5,6.2-1.5
					c2.8,0,5,0.5,6.6,1.6c1.6,1.1,2.9,2.8,3.7,5.2l6.6-5.3c1.3-1,3.1-1.5,5.4-1.5c4.1,0,7.1,1,9,3c1.9,2,2.9,5.3,2.9,9.8l-0.1,3.3
					c-0.1,3.6-0.2,6.8-0.2,9.6c0,3.7,0.1,6.2,0.4,7.3c0.2,0.6,0.4,1,0.8,1.3c0.4,0.2,1.8,0.5,4.4,0.6v3.2c-3.2-0.2-6.1-0.2-8.5-0.2
					c-2.3,0-4.8,0.1-7.3,0.2l-0.5-0.7c0.7-5.6,1-11.1,1-16.4c0-6.3-0.5-10.3-1.5-11.9c-1-1.6-2.7-2.4-5.2-2.4c-1.6,0-3,0.4-4.3,1.2
					c-1.2,0.8-2,1.7-2.4,2.8c-0.3,0.7-0.4,3-0.4,6.9c0,6.9,0.1,11.7,0.3,14.3c0.1,1.2,0.3,1.9,0.7,2.3c0.4,0.3,2.1,0.6,5,0.8v3.2
					c-3.4-0.2-6.8-0.2-10-0.2c-4.1,0-7.8,0.1-11,0.2v-3.2c2.6,0,4.1-0.4,4.5-1.1s0.7-4,0.7-9.8c0-6.6-0.1-10.7-0.4-12.4
					c-0.3-1.6-0.9-2.8-1.9-3.7c-1-0.8-2.4-1.3-4.2-1.3c-1.3,0-2.5,0.3-3.6,0.9c-1.1,0.6-2,1.5-2.7,2.5c-0.4,0.6-0.6,1.5-0.6,2.8
					l0,1.5c0.1,0.7,0.1,2.8,0.1,6.2l0,4.6c0,4.4,0.1,7.1,0.2,7.9c0.1,0.5,0.3,0.9,0.6,1.1c0.4,0.2,1.8,0.5,4.3,0.7v3.2
					c-3.1-0.2-6.5-0.2-10.3-0.2C1027.7,419,1024.2,419.1,1018.5,419.3z"/>
				<radialGradient id="SVGID_16_" cx="784.7095" cy="390.4532" r="294.5818" gradientUnits="userSpaceOnUse">
					<stop  offset="0" style="stop-color:#F7EA94"/>
					<stop  offset="0.25" style="stop-color:#BA8A2D"/>
					<stop  offset="0.5405" style="stop-color:#F7EA94"/>
					<stop  offset="0.75" style="stop-color:#BA8A2D"/>
					<stop  offset="1" style="stop-color:#F7EA94"/>
				</radialGradient>
				<path class="st17" d="M1096.7,420.1l-1.9-0.7c0.5-6.3,0.7-15,0.7-26.2c0-5,0-8.9-0.1-11.7l-0.2-10.1c0-1.5-0.1-2.6-0.4-3.1
					c-0.2-0.3-0.5-0.6-1-0.7c-0.3-0.1-1.9-0.2-4.6-0.3v-2.8c1.4,0,3.7-0.3,6.8-0.9c3.1-0.6,5.5-1.2,7-1.9l1.7-0.7
					c0.5,0,0.7,0.3,0.7,0.9l-0.1,4.1c-0.1,1.4-0.1,8.8-0.3,22.2l4.7-3.9c1.5-1.3,2.8-2.1,4-2.5c1.2-0.4,2.6-0.6,4.3-0.6
					c4.4,0,7.9,1.4,10.5,4.2c2.6,2.8,4,6.4,4,11c0,2.2-0.4,4.5-1.1,6.9s-1.6,4.3-2.7,5.8c-1.1,1.5-2.5,2.8-4.2,4
					c-2.2,1.4-4,2.6-5.5,3.8c-1.8,1.4-3.3,2.2-4.5,2.7c-1.2,0.4-2.7,0.6-4.5,0.6c-1.7,0-3.4-0.2-4.9-0.7c-1.5-0.4-3.2-1.3-5.1-2.4
					C1099.5,417.5,1098.3,418.5,1096.7,420.1z M1105.1,392.4v17.9c1,1.4,2.1,2.5,3.5,3.2c1.4,0.7,2.9,1.1,4.6,1.1
					c2.8,0,5-1.1,6.8-3.3c1.7-2.2,2.6-5.6,2.6-10.1c0-4.3-0.9-7.5-2.6-9.7c-1.8-2.2-4.1-3.3-6.9-3.3c-1.5,0-2.9,0.3-4.2,1
					S1106.2,391,1105.1,392.4z"/>
				<radialGradient id="SVGID_17_" cx="784.7095" cy="390.4532" r="294.5818" gradientUnits="userSpaceOnUse">
					<stop  offset="0" style="stop-color:#F7EA94"/>
					<stop  offset="0.25" style="stop-color:#BA8A2D"/>
					<stop  offset="0.5405" style="stop-color:#F7EA94"/>
					<stop  offset="0.75" style="stop-color:#BA8A2D"/>
					<stop  offset="1" style="stop-color:#F7EA94"/>
				</radialGradient>
				<path class="st18" d="M1138.9,419.3V416c3.4-0.2,5.4-0.4,5.8-0.7c0.5-0.3,0.8-0.9,0.9-1.9c0.3-1.4,0.4-5,0.4-10.8l0-21.4
					c0-7.2-0.2-11.2-0.4-11.8c-0.1-0.4-0.4-0.7-0.7-0.9c-0.5-0.3-2.5-0.6-6.1-0.8v-3.3c5.2,0.2,9.4,0.3,12.4,0.3
					c4.8,0,9.2-0.1,13.2-0.3v3.3c-3.2,0.2-5.1,0.4-5.7,0.7c-0.3,0.2-0.6,0.4-0.7,0.7c-0.3,0.5-0.4,2-0.5,4.5
					c-0.1,3.8-0.2,7.6-0.2,11.4v3.2c2.7,0.1,7,0.2,12.9,0.2c5.2,0,9.1-0.1,11.6-0.2c0-8.5-0.1-14.1-0.3-16.9
					c-0.1-1.5-0.4-2.4-0.8-2.7c-0.6-0.5-2.6-0.8-6.1-1v-3.3c6.5,0.2,10.9,0.3,13.2,0.3c3.9,0,8.1-0.1,12.5-0.3v3.3
					c-3.3,0.2-5.3,0.5-5.8,0.7c-0.3,0.2-0.5,0.4-0.7,0.7c-0.2,0.5-0.4,2.7-0.5,6.4c-0.2,5.7-0.3,10.3-0.3,13.8l0.2,17.8
					c0.1,4,0.2,6.3,0.4,6.9s0.5,1,0.9,1.3c0.4,0.2,2.4,0.5,5.8,0.7v3.3l-4.3-0.1c-3.3-0.1-5.8-0.2-7.7-0.2c-3.9,0-8.4,0.1-13.6,0.3
					V416c3.5-0.2,5.4-0.4,5.9-0.8c0.5-0.4,0.8-1.5,0.9-3.2c0.2-3,0.3-9.3,0.4-19c-2.9,0-6.2,0-9.7,0c-5.6,0-10.5,0.1-14.7,0.2v2.6
					c0,6.8,0.1,12,0.3,15.4c0.1,2.3,0.4,3.6,0.9,4s2.5,0.7,6,0.9v3.3l-4.6-0.1c-2.9-0.1-5.5-0.2-7.8-0.2L1138.9,419.3z"/>
			</g>
		</g>
		<g>
			<g>
				<path class="st19" d="M343.7,112.3c-7.7,20.1-14.8,39.3-22.7,58.1c-1,2.3-5.9,4.2-9,4.2c-18.8,0.4-37.6-0.3-56.3,0.5
					c-28.9,1.2-48,18.1-53.1,45.5c-5.6,29.9,18.3,60.6,48.9,61.9c20.5,0.8,41,0.1,61.5,0.5c6.8,0.1,7.8-4.9,9.6-9.4
					c17.4-45.1,34.8-90.2,52.2-135.3c2.6-6.7,4.7-13.6,8-19.9c1.4-2.7,5.3-5.9,8-5.9c38.5,0,77.2-1.3,115.5,1.5
					c50.4,3.7,94.1,48.4,100,98.4c7.8,65.9-33.7,121.1-99.3,132.1c-0.2,0-0.5,0.1-0.7,0.1c-34,0-68.1,0-103,0
					c2.9-7.5,5.7-15,8.6-22.4c3.9-10.1,8.1-20.1,11.6-30.4c2.2-6.7,5.9-9.3,13-9.1c18.3,0.4,36.6,0.4,54.8,0.1
					c27.3-0.5,49.6-20.4,52.9-46.7c3.4-27.2-12.8-51.9-39.6-58.9c-7.5-2-15.6-2.1-23.5-2.3c-15.3-0.3-30.6,0.1-45.9-0.2
					c-5.2-0.1-8,1.6-9.9,6.6c-19.8,52.1-39.8,104.1-59.7,156.1c-2.3,5.9-5.5,9.1-12.5,9c-31.6-0.5-63.2-0.5-94.8-0.6
					c-69.3-0.2-121.5-54.6-118.9-123.8c2-53.4,47.2-102.2,100.3-108.4c3.9-0.5,7.9-1.1,11.8-1.1C281.6,112.2,312,112.3,343.7,112.3z
					"/>
			</g>
			<g>
				
					<linearGradient id="SVGID_18_" gradientUnits="userSpaceOnUse" x1="139.0818" y1="-608.7057" x2="604.9451" y2="-608.7057" gradientTransform="matrix(1 0 0 1 0 837.9575)">
					<stop  offset="9.497206e-03" style="stop-color:#D1A53A"/>
					<stop  offset="0.25" style="stop-color:#F7EA94"/>
					<stop  offset="0.5" style="stop-color:#BA8A2D"/>
					<stop  offset="0.75" style="stop-color:#F7EA94"/>
					<stop  offset="1" style="stop-color:#C38C2C"/>
				</linearGradient>
				<path class="st20" d="M343.7,112.3c-7.7,20.1-14.8,39.3-22.7,58.1c-1,2.3-5.9,4.2-9,4.2c-18.8,0.4-37.6-0.3-56.3,0.5
					c-28.9,1.2-48,18.1-53.1,45.5c-5.6,29.9,18.3,60.6,48.9,61.9c20.5,0.8,41,0.1,61.5,0.5c6.8,0.1,7.8-4.9,9.6-9.4
					c17.4-45.1,34.8-90.2,52.2-135.3c2.6-6.7,4.7-13.6,8-19.9c1.4-2.7,5.3-5.9,8-5.9c38.5,0,77.2-1.3,115.5,1.5
					c50.4,3.7,94.1,48.4,100,98.4c7.8,65.9-33.7,121.1-99.3,132.1c-0.2,0-0.5,0.1-0.7,0.1c-34,0-68.1,0-103,0
					c2.9-7.5,5.7-15,8.6-22.4c3.9-10.1,8.1-20.1,11.6-30.4c2.2-6.7,5.9-9.3,13-9.1c18.3,0.4,36.6,0.4,54.8,0.1
					c27.3-0.5,49.6-20.4,52.9-46.7c3.4-27.2-12.8-51.9-39.6-58.9c-7.5-2-15.6-2.1-23.5-2.3c-15.3-0.3-30.6,0.1-45.9-0.2
					c-5.2-0.1-8,1.6-9.9,6.6c-19.8,52.1-39.8,104.1-59.7,156.1c-2.3,5.9-5.5,9.1-12.5,9c-31.6-0.5-63.2-0.5-94.8-0.6
					c-69.3-0.2-121.5-54.6-118.9-123.8c2-53.4,47.2-102.2,100.3-108.4c3.9-0.5,7.9-1.1,11.8-1.1C281.6,112.2,312,112.3,343.7,112.3z
					"/>
			</g>
		</g>
		<g>
			<g>
				<g>
					<g>
						<polygon class="st21" points="781.7,348.9 857.4,256.6 758.4,256.6 682.7,348.9 						"/>
					</g>
					<g>
						<polygon class="st21" points="598.7,451.3 386.1,710.5 485.1,710.5 697.7,451.3 						"/>
					</g>
				</g>
				<g>
					<g>
						<polygon class="st21" points="930.8,348.9 1079.6,164.3 980.5,164.3 831.8,348.9 						"/>
					</g>
					<g>
						<polygon class="st21" points="749.3,451.3 591.2,647.5 690.2,647.5 848.3,451.3 						"/>
					</g>
				</g>
				<g>
					<g>
						<polygon class="st21" points="897.3,451.3 813.1,553.9 912.1,553.9 996.3,451.3 						"/>
					</g>
					<g>
						<polygon class="st21" points="1080.3,348.9 1284.5,100 1185.5,100 981.3,348.9 						"/>
					</g>
				</g>
			</g>
		</g>
	</g>
</g>
</svg>
